<svg xmlns="http://www.w3.org/2000/svg" version="1.1" viewBox="-5.0 -10.0 110.0 135.0">
 <path d="m50 86.039c19.879 0 36.051-16.172 36.051-36.051 0-19.879-16.172-36.039-36.051-36.039s-36.051 16.172-36.051 36.051 16.172 36.051 36.051 36.051zm0-70.09c18.77 0 34.051 15.27 34.051 34.051s-15.27 34.051-34.051 34.051-34.051-15.281-34.051-34.051 15.281-34.051 34.051-34.051z"/>
 <path d="m34.578 15.16c0.12891 0 0.26953-0.03125 0.39844-0.078125 0.89844-0.39062 1.8086-0.73828 2.7188-1.0508 0.51953-0.17969 0.80078-0.75 0.62109-1.2695-0.17969-0.51953-0.75-0.80078-1.2695-0.62109-0.96094 0.32812-1.9219 0.69922-2.8711 1.1094-0.51172 0.21875-0.73828 0.80859-0.51953 1.3086 0.16016 0.37891 0.53125 0.60156 0.92188 0.60156z"/>
 <path d="m12 37.469c-0.32031 0.96875-0.60938 1.9609-0.85156 2.9609-0.12891 0.53906 0.19922 1.0781 0.73047 1.2109 0.078125 0.019531 0.16016 0.03125 0.23828 0.03125 0.44922 0 0.85937-0.30859 0.96875-0.76172 0.23047-0.94141 0.5-1.8906 0.80859-2.8086 0.17188-0.51953-0.10938-1.0898-0.64062-1.2617s-1.0898 0.10938-1.2617 0.64062z"/>
 <path d="m54.988 12.32h0.12891c0.5 0 0.92187-0.37109 0.98828-0.87109 0.070312-0.55078-0.30859-1.0508-0.85938-1.1211-1.0117-0.12891-2.0391-0.23047-3.0586-0.28125-0.55078-0.050781-1.0195 0.39062-1.0508 0.94141s0.39062 1.0195 0.94141 1.0508c0.96875 0.050782 1.9492 0.14063 2.9102 0.26953z"/>
 <path d="m29.281 17.949c0.17969 0 0.37109-0.050781 0.53125-0.14844 0.82031-0.51953 1.6719-1.0117 2.5312-1.4609 0.48828-0.26172 0.67969-0.85938 0.42188-1.3516-0.26172-0.48828-0.85938-0.67188-1.3516-0.42188-0.89844 0.46875-1.8008 0.98828-2.6602 1.5312-0.46875 0.28906-0.60938 0.91016-0.30859 1.3789 0.19141 0.30078 0.51953 0.46875 0.85156 0.46875z"/>
 <path d="m40.25 13.23c0.078125 0 0.17188 0 0.25-0.03125 0.94141-0.23828 1.8984-0.44922 2.8516-0.62109 0.53906-0.10156 0.91016-0.60938 0.80859-1.1602-0.10156-0.53906-0.62109-0.91016-1.1602-0.80859-1.0117 0.17969-2.0195 0.39844-3.0117 0.64844-0.53125 0.14063-0.85938 0.67969-0.71875 1.2188 0.12109 0.44922 0.51953 0.75 0.96875 0.75z"/>
 <path d="m17.59 26.551c-0.60156 0.82812-1.1719 1.6914-1.7109 2.5586-0.28906 0.46875-0.14062 1.0898 0.32812 1.3789 0.16016 0.10156 0.33984 0.14844 0.51953 0.14844 0.33984 0 0.66016-0.17188 0.85156-0.48047 0.51172-0.82812 1.0508-1.6484 1.6211-2.4297 0.32031-0.44922 0.21875-1.0703-0.21875-1.3984-0.44922-0.32812-1.0703-0.21875-1.3984 0.21875z"/>
 <path d="m25.121 21.27c0.73828-0.64062 1.5-1.25 2.2812-1.8281 0.44141-0.32812 0.53906-0.94922 0.21094-1.3984s-0.94922-0.53906-1.3984-0.21094c-0.82031 0.60156-1.6211 1.25-2.3984 1.9219-0.42188 0.35938-0.46094 0.98828-0.10156 1.4102 0.19922 0.23047 0.48047 0.33984 0.76172 0.33984 0.23047 0 0.46875-0.078125 0.64844-0.23828z"/>
 <path d="m14.371 31.789c-0.46875 0.91016-0.89844 1.8516-1.3008 2.7891-0.21094 0.51172 0.03125 1.1016 0.53906 1.3086 0.12891 0.050781 0.26172 0.078125 0.37891 0.078125 0.39062 0 0.76172-0.23047 0.92188-0.60938 0.37109-0.89844 0.78906-1.7891 1.2305-2.6484 0.25-0.48828 0.058594-1.0898-0.42969-1.3516-0.48828-0.26172-1.0898-0.058594-1.3516 0.42969z"/>
 <path d="m21.57 21.859c-0.71875 0.73047-1.4219 1.4883-2.0781 2.2695-0.35938 0.42188-0.30859 1.0508 0.12109 1.4102 0.19141 0.16016 0.42188 0.23828 0.64844 0.23828 0.28125 0 0.57031-0.12109 0.76172-0.35156 0.62891-0.73828 1.2891-1.4609 1.9688-2.1484 0.39062-0.39062 0.39062-1.0312 0-1.4102-0.39063-0.39063-1.0312-0.39063-1.4102 0z"/>
 <path d="m46.238 12.18c0.96094-0.089844 1.9414-0.14844 2.9219-0.17188 0.55078-0.011718 0.98828-0.46875 0.98047-1.0195-0.011719-0.55078-0.46875-1.0195-1.0195-0.98047-1.0312 0.019532-2.0586 0.078126-3.0703 0.17969-0.55078 0.050781-0.94922 0.53906-0.89844 1.0898 0.050781 0.51953 0.48828 0.89844 0.98828 0.89844h0.10156z"/>
 <path d="m88.391 38.719c-0.14844-0.53125-0.69922-0.83984-1.2383-0.67969-0.53125 0.16016-0.82812 0.71094-0.67969 1.2383 0.26953 0.92969 0.51172 1.8789 0.71094 2.8281 0.10156 0.46875 0.51172 0.78906 0.98047 0.78906 0.070313 0 0.14063 0 0.21094-0.019531 0.53906-0.10938 0.89062-0.64062 0.76953-1.1797-0.21094-1-0.46094-2.0117-0.75-2.9805z"/>
 <path d="m60.711 13.531c0.089843 0.03125 0.19141 0.039062 0.28125 0.039062 0.42969 0 0.82812-0.28125 0.96094-0.71875 0.16016-0.53125-0.14844-1.0898-0.67969-1.2383-0.98047-0.28906-1.9805-0.53906-2.9805-0.75-0.53906-0.12109-1.0703 0.23047-1.1797 0.76953-0.10938 0.53906 0.23047 1.0703 0.76953 1.1797 0.94922 0.19922 1.8984 0.44141 2.8281 0.71094z"/>
 <path d="m87.672 45c0.12891 0.96094 0.21875 1.9414 0.26953 2.9102 0.03125 0.53125 0.46875 0.94922 1 0.94922h0.058594c0.55078-0.03125 0.96875-0.5 0.94141-1.0508-0.050781-1.0195-0.14844-2.0508-0.28125-3.0586-0.070312-0.55078-0.57812-0.94141-1.1211-0.85938-0.55078 0.070313-0.92969 0.57031-0.85937 1.1211z"/>
 <path d="m83.172 27.641c-0.30859-0.46094-0.92969-0.57812-1.3906-0.26953s-0.57812 0.92969-0.26953 1.3906c0.53906 0.80078 1.0586 1.6406 1.5391 2.4805 0.17969 0.32031 0.51953 0.51172 0.87109 0.51172 0.17188 0 0.33984-0.039062 0.48828-0.12891 0.48047-0.26953 0.64844-0.87891 0.37891-1.3594-0.5-0.89062-1.0508-1.7695-1.6211-2.6094z"/>
 <path d="m86.211 32.98c-0.23047-0.5-0.82813-0.71875-1.3281-0.48047-0.5 0.23047-0.71094 0.82812-0.48047 1.3281 0.41016 0.87891 0.78906 1.7812 1.1406 2.6914 0.14844 0.39844 0.53125 0.64844 0.92969 0.64844 0.12109 0 0.23828-0.019531 0.35156-0.070313 0.51953-0.19922 0.78125-0.76953 0.57812-1.2891-0.35938-0.94922-0.76953-1.9102-1.1992-2.8281z"/>
 <path d="m66.172 15.602c0.14062 0.058594 0.28125 0.089844 0.42188 0.089844 0.37891 0 0.73828-0.21094 0.91016-0.57812 0.23047-0.5 0.019532-1.0898-0.48047-1.3281-0.92969-0.44141-1.8789-0.83984-2.8281-1.1992-0.51953-0.19922-1.0898 0.058593-1.2891 0.57812-0.19922 0.51953 0.058594 1.0898 0.57812 1.2891 0.91016 0.33984 1.8086 0.73047 2.6914 1.1406z"/>
 <path d="m71.238 18.48c0.17188 0.12109 0.37109 0.17188 0.55859 0.17188 0.32031 0 0.64062-0.14844 0.82812-0.44141 0.30859-0.46094 0.19141-1.0781-0.26953-1.3906-0.85156-0.57812-1.7305-1.1211-2.6094-1.6211-0.48047-0.26953-1.0898-0.10938-1.3594 0.37891-0.26953 0.48047-0.10938 1.0898 0.37891 1.3594 0.83984 0.48047 1.6719 0.98828 2.4805 1.5391z"/>
 <path d="m76.5 22.379c0.26953 0 0.53906-0.10938 0.73047-0.32031 0.37891-0.41016 0.35156-1.0391-0.050781-1.4102-0.75-0.69141-1.5312-1.3594-2.3398-2-0.42969-0.33984-1.0586-0.26953-1.3984 0.16016-0.33984 0.42969-0.26953 1.0586 0.16016 1.3984 0.76172 0.60938 1.5117 1.25 2.2188 1.8984 0.19141 0.17969 0.44141 0.26953 0.67969 0.26953z"/>
 <path d="m79.352 22.82c-0.37891-0.41016-1.0117-0.42969-1.4102-0.050781-0.41016 0.37891-0.42969 1.0117-0.050781 1.4102 0.66016 0.71094 1.3008 1.4609 1.8984 2.2188 0.19922 0.25 0.48828 0.37891 0.78125 0.37891 0.21875 0 0.44141-0.070313 0.62109-0.21875 0.42969-0.33984 0.5-0.96875 0.16016-1.4102-0.62891-0.80078-1.3086-1.5781-2-2.3281z"/>
 <path d="m50 90c0.44141 0 0.87891 0 1.3203-0.019531 0.55078-0.019531 0.98828-0.48047 0.96875-1.0312-0.019531-0.55078-0.46094-1.0117-1.0312-0.96875-0.96875 0.03125-1.9492 0.019531-2.9219-0.019531-0.55078-0.019532-1.0195 0.39844-1.0391 0.96094-0.019531 0.55859 0.39844 1.0195 0.96094 1.0391 0.57813 0.03125 1.1719 0.039062 1.75 0.039062z"/>
 <path d="m71.078 83.809c0.19141 0 0.37109-0.050782 0.53906-0.16016 0.85937-0.55078 1.7109-1.1406 2.5195-1.7617 0.44141-0.32812 0.53125-0.96094 0.19141-1.3984-0.32812-0.44141-0.96094-0.53125-1.3984-0.19141-0.76953 0.58984-1.5781 1.1484-2.3906 1.6719-0.46094 0.30078-0.60156 0.92188-0.30078 1.3789 0.19141 0.30078 0.51172 0.46094 0.83984 0.46094z"/>
 <path d="m80.789 75.531c0.64844-0.78906 1.2812-1.6094 1.8711-2.4414 0.32031-0.44922 0.21094-1.0703-0.23828-1.3906-0.44922-0.32031-1.0703-0.21094-1.3906 0.23828-0.55859 0.78906-1.1602 1.5703-1.7812 2.3203-0.35156 0.42188-0.28906 1.0586 0.12891 1.4102 0.19141 0.16016 0.41016 0.23047 0.64062 0.23047 0.28906 0 0.57031-0.12109 0.76953-0.35938z"/>
 <path d="m76.52 79.941c0.76172-0.67969 1.5117-1.3906 2.2188-2.1211 0.37891-0.39844 0.37891-1.0312-0.019531-1.4102-0.39062-0.37891-1.0312-0.37891-1.4102 0.019532-0.67969 0.69922-1.3906 1.3789-2.1094 2.0195-0.41016 0.37109-0.44922 1-0.078125 1.4102 0.19922 0.21875 0.46875 0.33984 0.75 0.33984 0.23828 0 0.46875-0.078125 0.66016-0.25z"/>
 <path d="m65.809 86.66c0.12891 0 0.26953-0.03125 0.41016-0.089844 0.94141-0.42187 1.8594-0.87109 2.7617-1.3516 0.48828-0.26172 0.67188-0.87109 0.39844-1.3594-0.26172-0.48828-0.87109-0.67188-1.3594-0.39844-0.85156 0.46094-1.7305 0.89062-2.6211 1.2891-0.5 0.21875-0.73047 0.82031-0.51172 1.3203 0.17188 0.37109 0.53125 0.58984 0.92188 0.58984z"/>
 <path d="m60.172 88.66c0.089844 0 0.17188-0.011718 0.26172-0.03125 0.98047-0.26172 1.9688-0.57031 2.9414-0.91016 0.51953-0.17969 0.78906-0.75 0.60938-1.2812-0.17969-0.51953-0.75-0.78906-1.2812-0.60938-0.92188 0.32031-1.8594 0.62109-2.7891 0.87109-0.53125 0.14062-0.85156 0.69141-0.71094 1.2305 0.12109 0.44922 0.51953 0.73828 0.96094 0.73828z"/>
 <path d="m85.379 66.469c-0.5-0.25-1.0898-0.039062-1.3398 0.44922-0.42969 0.87109-0.91016 1.7305-1.3984 2.5586-0.28125 0.46875-0.12891 1.0898 0.33984 1.3711 0.16016 0.10156 0.33984 0.14062 0.51172 0.14062 0.33984 0 0.67187-0.17188 0.85937-0.48828 0.51953-0.87109 1.0195-1.7812 1.4805-2.6992 0.25-0.48828 0.050781-1.0898-0.44922-1.3398z"/>
 <path d="m89 49c-0.55078 0-1 0.44922-1 1 0 0.96875-0.039062 1.9609-0.10938 2.9219-0.039063 0.55078 0.37109 1.0312 0.92188 1.0703h0.078125c0.51953 0 0.96094-0.39844 1-0.92188 0.078125-1.0117 0.12109-2.0508 0.12109-3.0703 0-0.55078-0.44922-1-1-1z"/>
 <path d="m54.379 89.762c1.0195-0.10938 2.0508-0.26172 3.0391-0.44922 0.53906-0.10156 0.89844-0.62109 0.80078-1.1719-0.10156-0.53906-0.62109-0.89844-1.1719-0.80078-0.94922 0.17969-1.9219 0.32031-2.8906 0.42969-0.55078 0.058594-0.94922 0.55078-0.89062 1.1016 0.058594 0.51172 0.48828 0.89062 0.98828 0.89062h0.10938z"/>
 <path d="m88.949 59.141c0.23047-1 0.42969-2.0117 0.57812-3.0195 0.078125-0.55078-0.28906-1.0586-0.83984-1.1406-0.53906-0.078125-1.0586 0.28906-1.1406 0.83984-0.14844 0.94922-0.32812 1.9219-0.55078 2.8711-0.12891 0.53906 0.21094 1.0781 0.75 1.1992 0.078125 0.019531 0.14844 0.03125 0.23047 0.03125 0.44922 0 0.87109-0.30859 0.96875-0.76953z"/>
 <path d="m87.09 65c0.37891-0.94922 0.73828-1.9219 1.0391-2.8984 0.17188-0.53125-0.12109-1.0898-0.64844-1.25-0.53125-0.17187-1.0898 0.12109-1.25 0.64844-0.28906 0.92969-0.62891 1.8516-0.98828 2.75-0.21094 0.51172 0.039062 1.0898 0.55078 1.3008 0.12109 0.050781 0.25 0.070313 0.37891 0.070313 0.39062 0 0.76953-0.23828 0.92969-0.62109z"/>
 <path d="m39.148 88.512c0.089843 0.03125 0.17969 0.039062 0.26953 0.039062 0.44141 0 0.83984-0.28906 0.96094-0.73047 0.14844-0.53125-0.16016-1.0781-0.69141-1.2305-0.94141-0.26172-1.8711-0.57031-2.7812-0.89844-0.51953-0.19141-1.0898 0.070313-1.2812 0.58984s0.070312 1.0898 0.58984 1.2812c0.94922 0.35156 1.9414 0.67188 2.9297 0.94922z"/>
 <path d="m12.75 64.602c0.14844 0.39063 0.53125 0.62891 0.92969 0.62891 0.12109 0 0.25-0.019531 0.35937-0.070313 0.51172-0.19922 0.76953-0.78125 0.57031-1.3008-0.35156-0.89844-0.67969-1.8281-0.96094-2.7617-0.16016-0.53125-0.71875-0.82812-1.25-0.66016-0.53125 0.16016-0.82813 0.71875-0.66016 1.25 0.30078 0.98047 0.64062 1.9609 1.0117 2.8984z"/>
 <path d="m18.719 71.578c-0.30859-0.44922-0.94141-0.57031-1.3906-0.25-0.44922 0.30859-0.57031 0.94141-0.25 1.3906 0.57812 0.83984 1.1992 1.6602 1.8398 2.4609 0.19922 0.23828 0.48828 0.37109 0.78125 0.37109 0.21875 0 0.44141-0.070312 0.62891-0.21875 0.42969-0.35156 0.48828-0.98047 0.14844-1.4102-0.60937-0.76172-1.1992-1.5391-1.75-2.3398z"/>
 <path d="m15.422 70.121c0.19141 0.32031 0.51953 0.5 0.85938 0.5 0.17188 0 0.33984-0.039063 0.5-0.14062 0.48047-0.28125 0.64062-0.89062 0.35938-1.3711-0.48828-0.83984-0.94922-1.6992-1.3711-2.5781-0.23828-0.5-0.83984-0.69922-1.3398-0.46094-0.5 0.23828-0.69922 0.83984-0.46094 1.3398 0.44922 0.92188 0.92969 1.8281 1.4492 2.7109z"/>
 <path d="m10 50c0 0.87891 0.03125 1.7617 0.089844 2.6406 0.03125 0.53125 0.46875 0.94141 1 0.94141h0.070312c0.55078-0.039062 0.96875-0.51172 0.92969-1.0586-0.050782-0.82813-0.078125-1.6797-0.078125-2.5117v-0.42188c0-0.55078-0.44141-1-0.98828-1.0117h-0.011719c-0.55078 0-0.98828 0.44141-1 0.98828v0.44141z"/>
 <path d="m12.91 58.281c-0.21094-0.94922-0.39062-1.9102-0.51953-2.8711-0.078125-0.55078-0.57812-0.92188-1.1289-0.85156-0.55078 0.078125-0.92969 0.57812-0.85156 1.1289 0.14062 1.0117 0.32812 2.0312 0.55078 3.0312 0.10156 0.46875 0.51953 0.78125 0.98047 0.78125 0.070313 0 0.14844 0 0.21875-0.019531 0.53906-0.12109 0.87891-0.64844 0.76172-1.1914z"/>
 <path d="m10.539 43.441c-0.17187 1-0.28906 2.0312-0.37891 3.0508-0.050781 0.55078 0.35938 1.0391 0.91016 1.0781h0.089844c0.51172 0 0.94922-0.39062 1-0.91016 0.078125-0.96875 0.21094-1.9492 0.35938-2.8984 0.089844-0.53906-0.28125-1.0586-0.82031-1.1484-0.55078-0.10156-1.0586 0.28125-1.1484 0.82031z"/>
 <path d="m45.18 89.711h0.12109c0.5 0 0.92969-0.37109 0.98828-0.87891 0.070313-0.55078-0.32812-1.0508-0.87109-1.1094-0.96094-0.12109-1.9297-0.26953-2.8906-0.46094-0.53906-0.10938-1.0703 0.23828-1.1797 0.78906-0.10938 0.53906 0.23828 1.0703 0.78906 1.1719 1.0117 0.19922 2.0312 0.35938 3.0391 0.48047z"/>
 <path d="m33.379 86.391c0.12891 0.058594 0.28125 0.089844 0.42188 0.089844 0.37891 0 0.73828-0.21875 0.91016-0.57812 0.23047-0.5 0-1.1016-0.48828-1.3281-0.87891-0.39844-1.7617-0.85156-2.6094-1.3203-0.48047-0.26953-1.0898-0.089844-1.3594 0.39062-0.26953 0.48047-0.089844 1.0898 0.39062 1.3594 0.89062 0.5 1.8203 0.96094 2.75 1.3906z"/>
 <path d="m28.551 83.57c0.32031 0 0.64062-0.16016 0.83984-0.44922 0.30078-0.46094 0.17969-1.0781-0.28125-1.3906-0.80859-0.53125-1.6094-1.1016-2.3789-1.6992-0.44141-0.33984-1.0703-0.26172-1.3984 0.17969-0.33984 0.44141-0.26172 1.0586 0.17969 1.3984 0.80859 0.62891 1.6484 1.2305 2.5 1.7891 0.17188 0.10937 0.35938 0.17187 0.55078 0.17187z"/>
 <path d="m23.141 79.641c0.19141 0.17188 0.42969 0.26172 0.67188 0.26172 0.26953 0 0.53906-0.10938 0.73828-0.32812 0.37109-0.41016 0.33984-1.0391-0.070312-1.4102-0.71094-0.64844-1.4219-1.3281-2.0898-2.0391-0.37891-0.39844-1.0117-0.42188-1.4102-0.039062-0.39844 0.37891-0.42188 1.0117-0.039063 1.4102 0.71094 0.75 1.4492 1.4688 2.1992 2.1484z"/>
 <path d="m38.48 79 29.66-33.711h-13.578l6.9688-24.289-29.648 33.711h13.578l-6.9688 24.289zm-2.1914-26.289 20.852-23.711-5.25 18.289h11.809l-20.852 23.711 5.25-18.289h-11.82z"/>
</svg>