<svg xmlns="http://www.w3.org/2000/svg" version="1.1" viewBox="-5.0 -10.0 110.0 135.0">
 <path d="m49.129 63.23h-9.5781c-1.2266 0-2.2266 1-2.2266 2.2266v25.266c0 1.2266 1 2.2266 2.2266 2.2266h9.5781c1.2266 0 2.2266-1 2.2266-2.2266v-25.262c0-1.2305-1-2.2305-2.2266-2.2305zm-0.48047 27.016h-8.6172v-24.305h8.6172zm20.559-35.379h-9.5781c-1.2266 0-2.2266 1-2.2266 2.2266v33.633c0 1.2266 1 2.2266 2.2266 2.2266h9.5781c1.2266 0 2.2266-1 2.2266-2.2266v-33.633c0-1.2266-0.99609-2.2266-2.2266-2.2266zm-0.48047 35.379h-8.6172v-32.672h8.6172zm26.738-45.316-7.8672-10.031c-0.75-0.95703-1.8789-1.5078-3.0977-1.5078s-2.3477 0.55078-3.0977 1.5078l-7.8672 10.031c-0.62891 0.80469-0.74609 1.875-0.29688 2.7891 0.44531 0.91797 1.3594 1.4883 2.3789 1.4883h1.8672v41.516c0 1.2266 1 2.2266 2.2266 2.2266h9.5781c1.2266 0 2.2266-1 2.2266-2.2266l-0.003906-41.512h1.8672c1.0195 0 1.9336-0.57031 2.3789-1.4883 0.44922-0.91797 0.33594-1.9883-0.29297-2.793zm-5.3047 1.5742c-0.74609 0-1.3555 0.60547-1.3555 1.3555v42.391h-8.6172l0.003906-42.395c0-0.74609-0.60547-1.3555-1.3555-1.3555h-3.0938l7.7891-9.9297c0.23438-0.30078 0.58594-0.46875 0.96875-0.46875 0.37891 0 0.73438 0.17188 0.96875 0.46875l7.7891 9.9297zm-16.695-9.8828-3.2773-12.719c-0.19141-0.73438-0.69922-1.3281-1.3945-1.6289-0.69531-0.30078-1.4766-0.26172-2.1406 0.10937l-11.48 6.3789c-0.82031 0.45312-1.2969 1.3125-1.25 2.2422 0.046875 0.9375 0.60938 1.75 1.4727 2.1172l1.5703 0.67578c-3.6836 5.8477-12.965 15.652-35.898 23.805-0.62109 0.22266-0.99609 0.85938-0.87891 1.5117 0.11328 0.64844 0.67578 1.1211 1.332 1.1211h0.007813c11.074-0.074219 20.988-2.5898 29.465-7.4766 6.0859-3.5078 11.496-8.2344 16.516-14.426l2.6406 1.1328c0.85937 0.37109 1.8359 0.21875 2.5508-0.39062 0.70312-0.60938 0.99609-1.5469 0.76562-2.4531zm-5.8359-1.1875c-0.5625-0.24219-1.2188-0.074219-1.5977 0.40625-9.5547 12.117-21.324 19.062-35.801 21.07 19.379-8.3984 26.977-17.848 29.867-23.098 0.18359-0.33594 0.21875-0.73047 0.09375-1.0938-0.125-0.35938-0.39453-0.65234-0.74609-0.80469l-2.4688-1.0586 10.676-5.9297 3.0469 11.828zm-38.578 36.164h-9.5781c-1.2266 0-2.2266 1-2.2266 2.2266v16.902c0 1.2266 1 2.2266 2.2266 2.2266h9.5781c1.2266 0 2.2266-1 2.2266-2.2266v-16.902c0-1.2266-1-2.2266-2.2266-2.2266zm-0.48438 18.648h-8.6172v-15.941h8.6172zm16.867-62.465c0-11.434-9.3008-20.734-20.734-20.734-11.43 0-20.73 9.3008-20.73 20.734s9.3008 20.734 20.734 20.734c11.43-0.003906 20.73-9.3047 20.73-20.734zm-38.758 0c0-9.9375 8.0859-18.027 18.027-18.027s18.027 8.0859 18.027 18.027-8.0859 18.027-18.027 18.027c-9.9414-0.003906-18.027-8.0898-18.027-18.027zm32.965 0c0-8.2383-6.6992-14.938-14.938-14.938s-14.938 6.6992-14.938 14.938 6.6992 14.938 14.938 14.938 14.938-6.7031 14.938-14.938zm-27.168 0c0-6.7422 5.4844-12.23 12.23-12.23 6.7422 0 12.23 5.4844 12.23 12.23 0 6.7422-5.4844 12.23-12.23 12.23-6.7461-0.003907-12.23-5.4883-12.23-12.23zm12.23 10.164c-0.74609 0-1.3555-0.60547-1.3555-1.3555v-1.0781c-1.9023-0.58203-3.293-2.3555-3.293-4.4453 0-0.74609 0.60547-1.3555 1.3555-1.3555 0.74609 0 1.3555 0.60547 1.3555 1.3555 0 1.0703 0.87109 1.9375 1.9375 1.9375 1.0352 0 2.2461-0.50781 2.2461-1.9375 0-1.4297-1.2109-1.9375-2.2461-1.9375-2.8711 0-4.9531-1.9531-4.9531-4.6445 0-2.2461 1.4492-3.9805 3.5977-4.4922v-1.0312c0-0.74609 0.60547-1.3555 1.3555-1.3555 0.74609 0 1.3555 0.60547 1.3555 1.3555v1.0781c1.9023 0.58203 3.293 2.3555 3.293 4.4453 0 0.74609-0.60547 1.3555-1.3555 1.3555-0.74609 0-1.3555-0.60547-1.3555-1.3555 0-1.0703-0.87109-1.9375-1.9375-1.9375-1.0352 0-2.2461 0.50781-2.2461 1.9375s1.2109 1.9375 2.2461 1.9375c2.8711 0 4.9531 1.9531 4.9531 4.6445 0 2.2461-1.4492 3.9805-3.5977 4.4922v1.0312c-0.003906 0.75-0.60938 1.3555-1.3555 1.3555z"/>
<text x="0.0" y="117.5" font-size="5.0" font-weight="bold" font-family="Arbeit Regular, Helvetica, Arial-Unicode, Arial, Sans-serif" fill="#000000">Created by SITI NURHAYATI</text><text x="0.0" y="122.5" font-size="5.0" font-weight="bold" font-family="Arbeit Regular, Helvetica, Arial-Unicode, Arial, Sans-serif" fill="#000000">from Noun Project</text></svg>