<svg xmlns="http://www.w3.org/2000/svg" version="1.1" viewBox="-5.0 -10.0 110.0 135.0">
 <path d="m41.73 25.523-25.621 14.793v20.367h6.043v-12c0-0.48438 0.39062-0.87891 0.875-0.87891h18.461c0.48438 0 0.875 0.39453 0.875 0.87891v12h5.75v-12.312c0-0.48438 0.39453-0.87891 0.87891-0.87891h13.566c0.48438 0 0.87891 0.39453 0.87891 0.87891v12.312h3.9141v-20.363l-6.625-3.8242-4.9531-2.8594-14.074 8.125c-0.19922 0.11719-0.44141 0.14844-0.66797 0.089843-0.22266-0.0625-0.41406-0.21094-0.53125-0.41016l-2.6172-4.543c-0.24219-0.41797-0.097656-0.94922 0.32031-1.1914l10.582-6.1055-7.0547-4.0742zm-1.1211 33.266v7.4766h-7.4727v-7.4727zm-9.2305 0v7.4766h-7.4727v-7.4727zm-7.4727-1.7539v-7.4727h7.4727v7.4727zm9.2305 0v-7.4727h7.4727v7.4727zm18.113 7.9492h-0.003906c0.015625-0.47266 0.40625-0.84766 0.87891-0.84766s0.85938 0.375 0.87891 0.84766v5.1641c-0.019531 0.47266-0.40625 0.84766-0.87891 0.84766s-0.86328-0.375-0.87891-0.84766v-5.1641zm20.98 0.035156c-0.17188-0.042969-0.33984-0.089843-0.50391-0.14062l-0.003906 0.003906c-0.91406-0.28516-1.793-0.67969-2.6133-1.1719v-22.379l0.74609 0.42969h-0.003907c0.20313 0.11719 0.44141 0.15234 0.66797 0.089843 0.22656-0.058593 0.41797-0.20703 0.53516-0.41016 0.007812-0.015625 0.019531-0.03125 0.027343-0.050781l2.5898-4.4922c0.23828-0.41797 0.09375-0.94922-0.32422-1.1914l-10.125-5.8477c1.2383-2.2266 2.9375-4.1641 4.9883-5.6797 1.9297-1.4219 4.2578-2.2031 6.6562-2.2305 4.1094 0 7.8555 2.3867 10.582 6.2383v0.003906c3.043 4.5742 4.6172 9.9688 4.5156 15.461 0.10156 5.4922-1.4727 10.887-4.5156 15.461-2.7266 3.8555-6.4688 6.2383-10.582 6.2383-0.84766 0-1.6953-0.097656-2.5195-0.29687-0.039062-0.015626-0.078125-0.023438-0.12109-0.03125zm0.72656 1.9375v6.4688h3.8281l-0.003906-6.4648c-1.2656 0.19922-2.5586 0.19922-3.8281 0zm-1.7578 6.4688v-6.875c-0.71875-0.22266-1.418-0.50391-2.0898-0.84375v7.7227zm7.3398-6.875v6.875h8.3086c0.48438 0 0.87891 0.39453 0.87891 0.87891v9.4492c0 0.48438-0.39453 0.87891-0.87891 0.87891h-77.688c-0.48438 0-0.87891-0.39453-0.87891-0.87891v-9.4531c0-0.48438 0.39453-0.87891 0.87891-0.87891h5.1953v-32.094l-0.74609 0.43359h-0.003906c-0.41797 0.23828-0.95312 0.097656-1.1914-0.32031l-2.6211-4.543c-0.24219-0.41797-0.097657-0.94922 0.32031-1.1914l6.1133-3.5312v-10.398h-1.0508c-0.23047 0-0.45312-0.09375-0.61719-0.25781-0.16797-0.16406-0.25781-0.38672-0.25781-0.62109v-4.6523c0-0.48438 0.39062-0.87891 0.875-0.87891h13.41c0.48437 0 0.87891 0.39453 0.87891 0.87891v4.6523c0 0.48437-0.39453 0.87891-0.87891 0.87891h-1.0508v3.8672l13.746-7.9375v0.003907c0.023438-0.015626 0.046875-0.027344 0.070312-0.039063h0.007813l0.011719-0.003906h0.019531-0.003906c0.10938-0.046875 0.22656-0.070313 0.34375-0.070313 0.11719 0 0.23438 0.023438 0.34375 0.070313h0.019531l0.011719 0.003906h0.007812-0.007812c0.027343 0.011719 0.050781 0.023437 0.070312 0.039063l19.531 11.273c1.3594-2.4453 3.2344-4.5703 5.4883-6.2305 2.2266-1.6367 4.9102-2.5273 7.6719-2.5547 4.7109 0 8.9531 2.6719 12.008 6.9883 3.2539 4.8672 4.9453 10.613 4.8438 16.469 0.10156 5.8555-1.5898 11.602-4.8438 16.469-1.9922 3.0078-4.9258 5.2695-8.3398 6.4336zm-16.883-35.578 10.062 5.8086-1.7461 3.0273-1.25-0.72266c-0.035156-0.023438-0.070312-0.042969-0.10938-0.0625l-7.0078-4.0469-5.3828-3.1055h0.003906c-0.023437-0.011719-0.046874-0.023438-0.070312-0.035156h-0.039062 0.003906c-0.10938-0.046876-0.22656-0.070313-0.34375-0.070313-0.11719 0-0.23438 0.023437-0.33984 0.070313h-0.039062 0.003906c-0.023438 0.011718-0.046875 0.023437-0.070313 0.035156l-13.754 7.9414-1.7461-3.0273 11.09-6.3984v-0.003907c0.15625-0.074218 0.28125-0.19531 0.36719-0.34375 0.11719-0.19922 0.15234-0.44141 0.09375-0.66797-0.0625-0.22266-0.20703-0.41406-0.41016-0.53125l-8.8008-5.082c-0.28906-0.16797-0.64844-0.15625-0.92578 0.027344l-26.379 15.23c-0.050782 0.023437-0.097657 0.050781-0.14453 0.082031l-1.2344 0.71094-1.7461-3.0273 5.7266-3.3086v0.003906c0.050781-0.023437 0.10156-0.050781 0.14453-0.082031l9.4062-5.4336h0.003907c0.050781-0.023438 0.097656-0.050782 0.14062-0.082032l14.566-8.4102 19.828 11.449c0.027344 0.015625 0.050781 0.03125 0.078125 0.046875l0.019531 0.011718zm21.859 26.406c1.3281-1.9102 2.3242-4.0312 2.9492-6.2734 0.69141-2.4258 1.0391-4.9336 1.0352-7.4531-0.015625-0.47266-0.40234-0.84766-0.87891-0.84766-0.47266 0-0.85938 0.375-0.875 0.84766 0.003906 2.3555-0.31641 4.6992-0.96094 6.9648-0.57031 2.0547-1.4844 4-2.6992 5.7539-0.13281 0.19141-0.1875 0.42578-0.14844 0.65234 0.042969 0.23047 0.16797 0.43359 0.35938 0.56641 0.39453 0.27734 0.9375 0.18359 1.2148-0.21094zm-8.6484-32.652c-1.3398-0.007812-2.6641 0.27734-3.8789 0.83594-1.2539 0.59375-2.3789 1.4258-3.3047 2.457-0.30078 0.35547-0.26562 0.88281 0.078125 1.1992 0.33984 0.31641 0.87109 0.30469 1.2031-0.019531 0.77344-0.85938 1.707-1.5547 2.75-2.0508 0.98828-0.44922 2.0664-0.67969 3.1523-0.67188 0.47266-0.015624 0.84766-0.40234 0.84766-0.875 0-0.47266-0.375-0.86328-0.84766-0.87891zm-28.555 49.574v8.5703h1.8008v-20.434h-5.75v4.707c0 0.48438-0.39062 0.875-0.875 0.875h-18.461c-0.48438 0-0.875-0.39062-0.875-0.875v-4.707h-6.043v10.988h29.324c0.48438 0 0.87891 0.39453 0.87891 0.87891zm-1.7539 8.5703v-7.6875h-34.523v7.6953zm20.684 0-0.003907-8.5703c0.003907-0.48438 0.39453-0.87891 0.87891-0.87891h1.2344v-10.984h-3.9141v20.438zm1.7578-7.6875v7.6953l18.969-0.003906v-7.6914zm-17.129 7.6914v-33.625h11.812v33.625zm-24.09-61.102v4.8828l-7.8008 4.5v-9.3789zm1.9297-4.6562-11.656 0.003906v2.8984h11.656z" fill-rule="evenodd"/>
</svg>