<svg xmlns="http://www.w3.org/2000/svg" xmlns:xlink="http://www.w3.org/1999/xlink" version="1.1" x="0px" y="0px" viewBox="0 0 487.996 606.735" style="enable-background:new 0 0 487.996 485.388;" xml:space="preserve"><g><path d="M293.614,126.078c14.358-1.569,22.787-6.592,30.938-11.449c7.266-4.33,14.75-8.772,25.843-10.586   c-15.181-20.438-31.984-39.832-50.058-57.699c-16.331-16.144-33.915-31.259-52.339-45.033v117.033   C263.493,125.087,278.826,127.696,293.614,126.078z"/><path d="M234.347,266.722h19.301V129.118c-3.212-1.098-6.429-2.354-9.65-3.783c-3.221,1.429-6.438,2.692-9.65,3.79V266.722z"/><rect x="97.845" y="274.722" width="292.306" height="19.333"/><path d="M359.723,103.213c12.885-0.246,22.325,3.162,30.699,6.196c9.687,3.51,18.053,6.541,29.927,3.135   c8.275-2.373,15.963-7.18,22.896-14.308c-28.039-28.591-60.433-51.914-96.344-69.361C319.14,15.388,289.799,5.711,259.477,0   c16.288,12.602,31.881,26.22,46.484,40.655C325.482,59.953,343.552,80.997,359.723,103.213z"/><path d="M44.417,358.04l-30.083-154.9c-0.66-3.397-3.646-5.863-7.1-5.863c-2.151,0-4.176,0.949-5.554,2.604   c-1.382,1.66-1.951,3.831-1.56,5.957l24.448,132.877c3.334,18.121,5.024,36.652,5.024,55.078v91.596h14.75V380.055   c0-2.209,1.791-4,4-4h91.002c2.209,0,4,1.791,4,4v105.333h14.75V361.277H48.344C46.429,361.277,44.782,359.92,44.417,358.04z"/><path d="M253.648,462.055v-160h-19.301v160c0,1.635-0.995,3.105-2.513,3.713l-48.991,19.62h61.154h61.154l-48.991-19.62   C254.643,465.16,253.648,463.69,253.648,462.055z"/><path d="M486.315,199.881c-1.378-1.655-3.402-2.604-5.554-2.604c-3.454,0-6.44,2.466-7.1,5.863l-30.083,154.9   c-0.365,1.88-2.012,3.237-3.927,3.237H329.899v124.111h14.75V380.055c0-2.209,1.791-4,4-4h91.002c2.209,0,4,1.791,4,4v105.333   h14.75v-91.596c0-18.426,1.69-36.957,5.024-55.078l24.448-132.877C488.266,203.712,487.698,201.541,486.315,199.881z"/><path d="M137.6,104.043c11.093,1.813,18.578,6.256,25.843,10.586c8.152,4.857,16.581,9.88,30.938,11.449   c14.788,1.619,30.122-0.991,45.616-7.734V1.311c-18.424,13.774-36.008,28.889-52.339,45.033   C169.584,64.212,152.781,83.605,137.6,104.043z"/><path d="M67.647,112.543c11.876,3.408,20.241,0.375,29.927-3.135c8.374-3.034,17.812-6.443,30.699-6.196   c16.171-22.216,34.24-43.26,53.762-62.558C196.637,26.22,212.231,12.602,228.519,0c-30.322,5.711-59.663,15.388-87.425,28.875   c-35.911,17.447-68.305,40.77-96.344,69.361C51.683,105.363,59.372,110.17,67.647,112.543z"/></g></svg>