<svg xmlns="http://www.w3.org/2000/svg" viewBox="0 0 72 90" fill="none" x="0px" y="0px"><path d="M69.497 27.5472C67.7107 19.9211 63.556 13.1014 57.6605 8.13053C51.6626 3.07325 44.2036 0.217087 36.4584 0.0118833C28.7131 -0.19332 21.1218 2.26409 14.8799 6.99709C8.63796 11.7301 4.10021 18.4697 1.98131 26.1545L4.65319 26.9379C6.6035 19.8646 10.7802 13.6612 16.5254 9.30476C22.2707 4.94835 29.258 2.68646 36.387 2.87534C43.516 3.06422 50.3815 5.69312 55.9022 10.348C61.2268 14.8376 65.0087 20.9658 66.7021 27.8258L64.4766 28.0477L68.8683 34.3913L72 27.2976L69.497 27.5472Z" fill="black"/><path d="M7.30097 44.6759L1.95629 39.1646L0 46.6932L2.05936 46.1242C4.18103 53.59 8.59319 60.152 14.6414 64.8204C20.844 69.6079 28.4148 72.1318 36.1615 71.9946C43.9081 71.8573 51.3904 69.0667 57.4298 64.0622C63.4693 59.0577 67.7228 52.1237 69.5204 44.3523L66.8184 43.6878C65.1638 50.8408 61.2488 57.2231 55.6899 61.8294C50.1309 66.4357 43.244 69.0043 36.1137 69.1306C28.9835 69.2569 22.015 66.9338 16.3059 62.5272C10.7563 58.2436 6.70311 52.2279 4.74328 45.3826L7.30097 44.6759Z" fill="black"/><path fill-rule="evenodd" clip-rule="evenodd" d="M35.5617 33C41.9887 33 47.1988 27.6274 47.1988 21C47.1988 14.3726 41.9887 9 35.5617 9C29.1347 9 23.9246 14.3726 23.9246 21C23.9246 27.6274 29.1347 33 35.5617 33ZM35.5617 30C40.3819 30 44.2895 25.9706 44.2895 21C44.2895 16.0294 40.3819 12 35.5617 12C30.7414 12 26.8339 16.0294 26.8339 21C26.8339 25.9706 30.7414 30 35.5617 30Z" fill="black"/><path d="M28.2885 35C21.5937 35 16.1665 40.5964 16.1665 47.5V59H19.0758V47C19.0758 42.0294 22.9834 38 27.8036 38H43.3198C48.14 38 52.0476 42.0294 52.0476 47V59H54.9569V47.5C54.9569 40.5964 49.5297 35 42.8349 35H28.2885Z" fill="black"/></svg>