<svg xmlns="http://www.w3.org/2000/svg" viewBox="0 0 128 160" x="0px" y="0px"><title>Shopping,Bag,Order,Purchase</title><path d="M29,126H99a1,1,0,0,0,1-.912l8-90A1,1,0,0,0,107,34h-4V11a1,1,0,0,0-1-1H68a1,1,0,0,0-1,1v4.473L51.653,2.243a1,1,0,0,0-1.36.05l-25,25a1,1,0,0,0,.052,1.463L31.4,34H21a1,1,0,0,0-1,1.088l8,90A1,1,0,0,0,29,126Zm.915-2-.889-10H98.974l-.889,10ZM101,12V34H69V12ZM27.466,27.948,51.05,4.364,67,18.113V34H34.45ZM105.907,36l-6.755,76h-70.3L22.093,36Z"/><path d="M45,49.858V57a19,19,0,0,0,38,0V49.858a4,4,0,1,0-2,0V57a17,17,0,0,1-34,0V49.858a4,4,0,1,0-2,0ZM80,46a2,2,0,1,1,3,1.722V46H81v1.722A1.993,1.993,0,0,1,80,46ZM46,44a1.994,1.994,0,0,1,1,3.722V46H45v1.722A1.994,1.994,0,0,1,46,44Z"/><text x="0" y="143" fill="#000000" font-size="5px" font-weight="bold" font-family="'Helvetica Neue', Helvetica, Arial-Unicode, Arial, Sans-serif">Created by TwentyVibe</text><text x="0" y="148" fill="#000000" font-size="5px" font-weight="bold" font-family="'Helvetica Neue', Helvetica, Arial-Unicode, Arial, Sans-serif">from the Noun Project</text></svg>