<svg xmlns="http://www.w3.org/2000/svg" version="1.1" viewBox="-5.0 -10.0 110.0 135.0">
 <path d="m82.301 58.414c0-0.64844-0.25-1.2383-0.69141-1.6836 0.42578-0.47656 0.69141-1.1016 0.69141-1.7617v-0.15234c0-0.68359-0.26953-1.3086-0.76172-1.7578-0.48828-0.44922-1.1289-0.66797-1.8086-0.60938l-1.2031 0.097656v-12.516c0-0.23828-0.10938-0.46484-0.29297-0.61328-0.18359-0.14844-0.42969-0.20703-0.66016-0.16016-0.38281 0.082032-0.88672 0.19141-1.4688 0.32031v-2.1367c0-0.23828-0.10547-0.46484-0.29297-0.61328-0.18359-0.14844-0.42969-0.20703-0.66016-0.16016-0.49609 0.10547-1.0195 0.21875-1.5625 0.33984v-1.9062c0-0.23828-0.10938-0.46484-0.29297-0.61328-0.18359-0.14844-0.42969-0.20703-0.66016-0.16016-1.1211 0.23438-2.207 0.49219-3.2617 0.76562-3.7852-3.5117-8.875-5.9453-14.41-6.8477h-0.019532c-0.058593-0.007813-0.11719 0-0.17969 0.007812-0.042969 0.003906-0.085937 0-0.12891 0.011719s-0.078125 0.035156-0.11719 0.054687c-0.054687 0.023438-0.11328 0.046876-0.16016 0.082032-0.003906 0.003906-0.011719 0.003906-0.015625 0.007812-1.2734 1.0117-2.8086 1.5508-4.4375 1.5508-1.6328 0-3.168-0.53516-4.4414-1.5508-0.003906-0.003906-0.011719-0.003906-0.015625-0.007812-0.046875-0.035156-0.10156-0.054688-0.15625-0.082032-0.039063-0.019531-0.078125-0.042968-0.11719-0.054687-0.039062-0.011719-0.085937-0.007813-0.125-0.011719-0.0625-0.003906-0.12109-0.015625-0.17969-0.007812h-0.019532c-5.5195 0.89844-10.602 3.3164-14.387 6.8125-1.0078-0.25781-2.0352-0.5-3.1016-0.72656-0.23438-0.046875-0.47656 0.007813-0.66016 0.16016-0.18359 0.14844-0.29297 0.375-0.29297 0.61328v1.9062c-0.54297-0.12109-1.0664-0.23438-1.5625-0.33984-0.23438-0.046875-0.47656 0.011719-0.66016 0.16016-0.18359 0.14844-0.29297 0.375-0.29297 0.61328v2.1367c-0.58203-0.13281-1.0859-0.24219-1.4688-0.32031-0.23438-0.050781-0.47656 0.007812-0.66016 0.16016-0.18359 0.14844-0.29297 0.375-0.29297 0.61328v12.516l-1.2031-0.097656c-0.67578-0.054687-1.3203 0.16016-1.8086 0.60938-0.48828 0.45312-0.76172 1.0742-0.76172 1.7578v0.15234c0 0.66406 0.26562 1.2852 0.69141 1.7617-0.44141 0.44531-0.69141 1.0352-0.69141 1.6836v0.14844c0 0.66406 0.26562 1.2852 0.69141 1.7617-0.44141 0.44531-0.69141 1.0352-0.69141 1.6836v0.15234c0 0.66406 0.26562 1.2852 0.69141 1.7617-0.44141 0.44531-0.69141 1.0352-0.69141 1.6836v0.15234c0 1.3516 1.0938 2.543 2.4375 2.6523l1.332 0.10938v11.336c0 0.37109 0.25781 0.69141 0.61719 0.77344 9.9062 2.2109 17.84 4.9062 24.258 8.2422 0.015625 0.007812 0.035156 0.003906 0.050781 0.011719 0.019531 0.007812 0.035157 0.023437 0.054688 0.03125 1.207 0.41797 2.4102 0.62891 3.5938 0.62891 1.1914 0 2.3672-0.21094 3.5195-0.63281 0.019531-0.007812 0.03125-0.019531 0.046875-0.027343 0.015625-0.007813 0.03125-0.003907 0.046875-0.011719 6.418-3.3359 14.352-6.0312 24.258-8.2422 0.36328-0.082031 0.61719-0.40234 0.61719-0.77344v-11.336l1.332-0.10938c1.3438-0.10937 2.4375-1.3008 2.4375-2.6523v-0.15234c0-0.64844-0.25-1.2383-0.69141-1.6836 0.42578-0.47656 0.69141-1.1016 0.69141-1.7617v-0.15234c0-0.64844-0.25-1.2383-0.69141-1.6836 0.42578-0.47656 0.69141-1.1016 0.69141-1.7617zm-2.3633-0.79687c0.20312 0 0.39062 0.070312 0.53125 0.19922 0.16016 0.14844 0.25 0.35938 0.25 0.59375v0.14844c0 0.53906-0.45312 1.0312-0.98438 1.0781l-6.8008 0.5625c-0.23047 0.019531-0.44531-0.050781-0.60547-0.19922s-0.25-0.35938-0.25-0.59375v-0.15234c0-0.53906 0.45312-1.0312 0.98438-1.0781l6.2539-0.51562 0.54688-0.046875c0.023438-0.003906 0.050781-0.003906 0.074219-0.003906zm0 3.5977c0.20312 0 0.39062 0.070312 0.53125 0.19922 0.16016 0.14844 0.25 0.35938 0.25 0.59375v0.15234c0 0.53906-0.45312 1.0312-0.98438 1.0781l-2.7578 0.22656-2.3789 0.19531c-0.23047 0.019532-0.44531-0.050781-0.60547-0.19922-0.16016-0.14844-0.25-0.35938-0.25-0.59375v-0.15234c0-0.53906 0.45312-1.0312 0.98437-1.0781l4.0469-0.33594 1.0938-0.089843c0.023437-0.003907 0.050781-0.003907 0.074218-0.003907zm-0.074219-7.1875c0.23047-0.019532 0.44531 0.050781 0.60547 0.19922 0.16016 0.14844 0.25 0.35938 0.25 0.59375v0.15234c0 0.53906-0.45312 1.0312-0.98438 1.0781l-4.3125 0.35547c-0.23047 0.019531-0.44531-0.050781-0.60547-0.19922-0.16016-0.14844-0.25-0.35938-0.25-0.59375v-0.14844c0-0.53906 0.45312-1.0312 0.98438-1.0781l4.3164-0.35547zm-5.3398-14.07c-5.0664 1.2227-14.047 3.7344-21.57 7.6758-0.33594 0.15625-0.67578 0.27344-1.0195 0.375 5-5.0312 15.727-8.0742 22.594-9.5781v1.5312zm-2.5156-2.5742c-5.6523 1.3633-12.922 3.6172-18.035 6.9805 4.6367-4.5664 12.547-7.043 18.035-8.2734zm-27.219-7.5117c1.4805 1.0781 3.2812 1.6719 5.1211 1.6719 1.8633 0 3.625-0.58203 5.1172-1.668 4.7539 0.83203 9.1328 2.8398 12.527 5.7227-2.8477 0.82422-5.4258 1.7891-7.6953 2.8828-4.8359 2.3398-8.1367 5.2188-9.8633 8.5781-1.7266-3.3594-5.0273-6.2422-9.8633-8.5781-2.3086-1.1172-4.9375-2.0938-7.8438-2.9258 3.3945-2.8633 7.7656-4.8594 12.5-5.6836zm-16.801 6.2188c5.4844 1.2305 13.395 3.707 18.035 8.2734-5.1133-3.3633-12.383-5.6172-18.035-6.9805zm-2.5156 2.3359c6.8438 1.5 17.516 4.5312 22.539 9.5273-0.32422-0.09375-0.65234-0.19922-0.98828-0.33203-7.5195-3.9375-16.488-6.4453-21.551-7.668v-1.5312zm-6.1914 16.395c0-0.23437 0.089844-0.44531 0.25-0.59375 0.14062-0.13281 0.32812-0.19922 0.53125-0.19922 0.023438 0 0.050781 0 0.074219 0.003906l4.3164 0.35547c0.53516 0.042969 0.98438 0.53516 0.98438 1.0781v0.14844c0 0.23438-0.089844 0.44531-0.25 0.59375-0.16016 0.14844-0.375 0.21875-0.60547 0.19922l-4.3125-0.35547c-0.53516-0.042969-0.98438-0.53906-0.98438-1.0781v-0.15234zm5.9961 6.8242c0.53516 0.042969 0.98438 0.53516 0.98438 1.0781v0.15234c0 0.23438-0.089844 0.44531-0.25 0.59375-0.16016 0.14844-0.375 0.21484-0.60547 0.19922l-4.957-0.40625-0.18359-0.015625c-0.53516-0.042969-0.98438-0.53906-0.98438-1.0781v-0.15234c0-0.23438 0.089844-0.44531 0.25-0.59375 0.14062-0.13281 0.32812-0.19922 0.53125-0.19922 0.023438 0 0.050781 0 0.074219 0.003906l5.1406 0.42578zm1.793-1.4375-6.8008-0.5625c-0.53516-0.042969-0.98438-0.53906-0.98438-1.0781v-0.14844c0-0.23438 0.089844-0.44531 0.25-0.59375 0.14062-0.13281 0.32812-0.19922 0.53125-0.19922 0.023438 0 0.050782 0 0.074219 0.003906l6.8008 0.5625c0.53516 0.042969 0.98438 0.53516 0.98438 1.0781v0.15234c0 0.23438-0.089843 0.44531-0.25 0.59375-0.16016 0.14844-0.375 0.21484-0.60547 0.19922zm-7.7852 5.5547v-0.15234c0-0.23438 0.089844-0.44531 0.25-0.59375 0.14062-0.13281 0.32812-0.19922 0.53125-0.19922 0.023438 0 0.050782 0 0.074219 0.003906l2.7578 0.22656c0.53516 0.042969 0.98437 0.53906 0.98437 1.0781v0.15234c0 0.23438-0.089843 0.44531-0.25 0.59375-0.16016 0.14844-0.375 0.21875-0.60547 0.19922l-2.7578-0.22656c-0.53516-0.042969-0.98438-0.53516-0.98438-1.0781zm3.7695 2.8867c0.015624 0 0.035156 0.003906 0.050781 0.003906 0.59766 0 1.1602-0.21484 1.5977-0.62109 0.48828-0.45312 0.76172-1.0742 0.76172-1.7578v-0.15234c0-0.30469-0.0625-0.60156-0.16406-0.87891 0.0625 0.003906 0.125 0.007812 0.1875 0.007812 0.59766 0 1.1602-0.21484 1.5977-0.62109 0.48828-0.45312 0.76172-1.0742 0.76172-1.7578v-0.15234c0-0.34375-0.074218-0.67578-0.19922-0.98438 0.41016-0.085937 0.78906-0.27344 1.1016-0.5625 0.48828-0.45312 0.76172-1.0742 0.76172-1.7578v-0.15234c0-1.3516-1.0938-2.543-2.4375-2.6523l-0.25391-0.019531c0.13281-0.30078 0.20313-0.63281 0.20313-0.97656v-0.14844c0-1.3516-1.0938-2.543-2.4375-2.6523l-1.5312-0.125v-11.664c4.1602 0.92187 14.402 3.4648 22.867 7.8125v38.055c-6.1914-3.0625-13.691-5.5742-22.867-7.6562zm24.449 18.941v-38.133c1.7422 0.50781 3.418 0.51953 5 0.039063v38.102c-1.6367 0.49219-3.2812 0.49219-5-0.007812zm6.582-0.70703v-38.055c8.4648-4.3477 18.707-6.8906 22.867-7.8125v11.664l-1.5312 0.125c-1.3438 0.10937-2.4375 1.3008-2.4375 2.6523v0.14844c0 0.32812 0.066406 0.64062 0.18359 0.92969-0.03125 0.019532-0.0625 0.035156-0.089844 0.058594l-0.14453 0.011719c-1.3438 0.10938-2.4375 1.3008-2.4375 2.6523v0.15234c0 0.68359 0.26953 1.3086 0.76172 1.7578 0.3125 0.28906 0.69141 0.47656 1.1016 0.5625-0.12891 0.30859-0.19922 0.64062-0.19922 0.98438v0.15234c0 0.68359 0.26953 1.3086 0.76172 1.7578 0.4375 0.40234 1 0.62109 1.5977 0.62109 0.0625 0 0.125-0.003906 0.1875-0.007813-0.10156 0.27734-0.16406 0.57422-0.16406 0.87891v0.15234c0 0.68359 0.26953 1.3086 0.76172 1.7578 0.4375 0.40234 1 0.62109 1.5977 0.62109 0.015625 0 0.035156 0 0.050781-0.003907v10.578c-9.1758 2.082-16.676 4.5938-22.867 7.6562zm26.637-21.125c0 0.53906-0.45312 1.0312-0.98438 1.0781l-2.7578 0.22656c-0.23047 0.019531-0.44531-0.050781-0.60547-0.19922-0.16016-0.14844-0.25-0.35938-0.25-0.59375v-0.15234c0-0.53906 0.44922-1.0312 0.98438-1.0781l2.7578-0.22656c0.23047-0.019531 0.44531 0.050781 0.60547 0.19922 0.16016 0.14844 0.25 0.35938 0.25 0.59375zm-30.871-36.742c4.8047 0 8.7109-4.1602 8.7109-9.2773 0-5.1133-3.9062-9.2773-8.7109-9.2773-4.8047 0-8.7109 4.1602-8.7109 9.2773 0 5.1133 3.9062 9.2773 8.7109 9.2773zm0-16.973c3.9297 0 7.1289 3.4531 7.1289 7.6953 0 4.2422-3.1992 7.6953-7.1289 7.6953-3.9297 0-7.1289-3.4531-7.1289-7.6953 0-4.2422 3.1992-7.6953 7.1289-7.6953z"/>
</svg>