<svg xmlns="http://www.w3.org/2000/svg" version="1.1" viewBox="-5.0 -10.0 110.0 135.0">
 <path d="m98.789 87.258-16.113-21.133s-16.883-4.4766-22.969-5.1094c-4.5547-0.47656-7.8633 1.9023-9.707 3.7578-1.8438-1.8516-5.1562-4.2266-9.707-3.75-6.0859 0.63281-22.969 5.1094-22.969 5.1094l-16.113 21.125h41.688c0.80078 3.1797 3.6758 5.543 7.1016 5.543s6.3008-2.3633 7.1016-5.543zm-39.496-22.258c5.0977 0.53125 17.973 3.8438 21.035 4.6445l5.5977 7.3438c-6.9062-2.4375-17.609-5.9258-23.406-6.3438-4.7461-0.34766-8.1914 1.6016-10.52 3.7617v-5.8828c0.86719-1.1094 3.4609-3.9297 7.293-3.5234zm-39.621 4.6406c3.0625-0.79688 15.938-4.1133 21.035-4.6445 3.8477-0.40234 6.4336 2.4219 7.293 3.5312v5.875c-2.3281-2.1602-5.7734-4.1055-10.52-3.7617-5.7969 0.42188-16.5 3.9062-23.406 6.3438zm23.336 13.617h-33.719s20.992-8.0859 28.48-8.6289c4.4609-0.31641 7.375 2.2578 8.957 4.2812-1.7578 0.88672-3.1172 2.4492-3.7188 4.3477zm6.9922 5.543c-1.8398 0-3.3359-1.4961-3.3359-3.3359 0-1.8359 1.4961-3.332 3.3359-3.332s3.3359 1.4961 3.3359 3.3359c0 1.8359-1.4961 3.332-3.3359 3.332zm3.2773-9.8867c1.5859-2.0234 4.5117-4.6094 8.9531-4.2891 7.4883 0.53906 28.48 8.6289 28.48 8.6289l-33.719 0.003906c-0.60156-1.8984-1.957-3.4609-3.7148-4.3438z"/>
 <path d="m38.301 44.379c1.5586 1.5898 2.9297 4.6211 2.9297 6.4844 0 2.918 2.2109 5.375 5.2031 6.0938 0.57812 1.2852 1.8633 2.1875 3.3594 2.1875 1.4766 0 2.7422-0.875 3.332-2.1328 3.1094-0.64062 5.4375-3.1523 5.4375-6.1484 0-1.8633 1.3672-4.8906 2.9297-6.4844 0.13281-0.13672 3.2812-3.4062 3.2812-8.8281 0-8.2031-6.6719-14.875-14.875-14.875-8.2031 0-14.875 6.6719-14.875 14.875-0.003907 5.418 3.1445 8.6914 3.2773 8.8281zm13.262 8.7969h-3.3359c-1.625 0-3-1.0586-3-2.3125 0-0.51562-0.074218-1.0703-0.17969-1.6484h9.6953c-0.10547 0.57422-0.17969 1.1328-0.17969 1.6484 0 1.2539-1.375 2.3125-3 2.3125zm-3.6797-15.883h4.0234l-1.4492 7.9219h-1.1211zm2.0117-12.617c5.9961 0 10.875 4.8789 10.875 10.875 0 3.7305-2.0586 5.9453-2.1367 6.0273-0.96875 0.99219-1.8359 2.3008-2.5312 3.6953v-0.054688h-1.582l1.75-9.5625c0.10547-0.58594-0.050781-1.1875-0.42969-1.6406s-0.94141-0.71875-1.5352-0.71875h-8.8203c-0.59375 0-1.1562 0.26562-1.5352 0.71875-0.37891 0.45312-0.53906 1.0547-0.42969 1.6406l1.75 9.5625h-1.6094c-0.6875-1.375-1.5469-2.6641-2.5039-3.6406-0.023438-0.023437-2.1367-2.2812-2.1367-6.0273 0-5.9961 4.8789-10.875 10.875-10.875z"/>
 <path d="m21.812 33.293h10.832v4h-10.832z"/>
 <path d="m67.168 33.293h10.832v4h-10.832z"/>
 <path d="m47.906 7.1992h4v10.836h-4z"/>
 <path d="m31.016 14.402 7.8203 7.5-2.7695 2.8867-7.8203-7.5z"/>
 <path d="m68.797 56.184-7.8164-7.5 2.7695-2.8867 7.8164 7.5z"/>
 <path d="m31.902 56.949-2.8867-2.7695 7.5-7.8164 2.8867 2.7695z"/>
 <path d="m67.91 13.637 2.8867 2.7695-7.5 7.8164-2.8867-2.7695z"/>
<text x="0.0" y="117.5" font-size="5.0" font-weight="bold" font-family="Arbeit Regular, Helvetica, Arial-Unicode, Arial, Sans-serif" fill="#000000">Created by pramana</text><text x="0.0" y="122.5" font-size="5.0" font-weight="bold" font-family="Arbeit Regular, Helvetica, Arial-Unicode, Arial, Sans-serif" fill="#000000">from Noun Project</text></svg>