<svg xmlns="http://www.w3.org/2000/svg" version="1.1" viewBox="-5.0 -10.0 110.0 135.0">
 <path d="m83.004 80.16c-1.4609-2.3984-7.5742-5.1836-10.035-6.2305 0.003906-0.007813 0.011719-0.015626 0.011719-0.023438 0.042969-0.19141-0.03125-0.39453-0.19141-0.51172-2.7734-2.0508-7.4648-2.7227-8.7695-2.875-0.47266-1.5547-0.75781-2.9688-0.90234-3.8242 0.71875 0.37891 1.1914 0.58594 1.2578 0.61328 1.4961 0.52344 2.4297 1.0742 3.1133 1.4766 0.68359 0.40625 1.1797 0.69531 1.7891 0.70312h0.035156c2.4531 0 3.2812-2.2734 3.8867-6.1953 0.56641-3.6875 0.48047-7.9648 0.43359-9.3555 0.089844-0.027344 0.17578-0.070312 0.23828-0.14062 0.089844-0.10156 0.13281-0.23828 0.12109-0.375-0.86328-9.2109-4.6328-15.191-10.605-16.844-6.4922-1.7969-7.6758-3.1406-7.6758-3.1406-0.89844-1.2734-0.90234-3.3398-0.88281-3.9531 0.75781-0.77344 1.5156-1.6797 2.0664-2.9219 0.03125 0 0.066407 0.007812 0.097657 0.007812 1.1797 0 1.6094-0.85156 2.1758-1.9766l0.22656-0.44531c0.40234-0.78125 1.625-3.1562 0.042969-4.1172-0.066406-0.039062-0.13281-0.0625-0.19922-0.09375 1.2188-4.1328-0.49219-8.6445-4.2031-11.023-3.168-2.0312-6.9141-2.2109-10.277-0.49609-2.4297 1.2383-2.7656 2.8125-2.7852 3.5156-3.125 2.1016-1.8008 6.5391-1.2422 8.0195-0.058594 0.027344-0.11328 0.046875-0.16797 0.078125-1.582 0.96094-0.35938 3.3359 0.042969 4.1172l0.22656 0.44531c0.56641 1.125 0.99609 1.9766 2.1758 1.9766 0.03125 0 0.066407-0.007812 0.097657-0.007812 0.55469 1.2422 1.3125 2.1523 2.0742 2.9258 0.023437 0.62109 0.019531 2.6719-0.86719 3.9297-0.011719 0.015625-1.1875 1.3633-7.6914 3.1602-5.9766 1.6523-9.7422 7.6367-10.605 16.844-0.011719 0.13672 0.03125 0.27344 0.12109 0.375 0.0625 0.074219 0.14844 0.11719 0.23828 0.14062-0.046875 1.3945-0.13281 5.668 0.43359 9.3555 0.60156 3.9219 1.4336 6.1953 3.8867 6.1953h0.035157c0.60938-0.003906 1.1016-0.29688 1.7891-0.70312 0.67969-0.40234 1.6133-0.95312 3.1445-1.4922 0.054688-0.023438 0.51563-0.22656 1.2227-0.59766-0.14453 0.85547-0.42969 2.2695-0.90234 3.8242-1.3047 0.15234-5.9961 0.82812-8.7695 2.875-0.16016 0.11719-0.23438 0.32031-0.19141 0.51172 0.003906 0.007812 0.011718 0.015625 0.011718 0.023438-2.4648 1.0469-8.5781 3.832-10.035 6.2305-1.8828 3.0938-0.90234 6.0312 0.90625 7.5742 1.5508 1.3203 7.707 4.6836 13.781 3.832 0.13672-0.007812 13.711-0.65625 19.219 0.12891 2.9844 0.42188 5.793 0.023438 8.0469-0.30078 1.6797-0.23828 3.2617-0.46875 3.6406-0.070312 0.71875 0.74609 1.8047 1.4336 2.7266 1.4336 0.16406 0 0.32422-0.023437 0.47656-0.070312 0.30078-0.097656 0.82031-0.38281 0.94922-1.2344 0.007812-0.0625 0.003906-0.11719 0.007812-0.17969 0.67188 0.14453 1.4609 0.28125 1.5156 0.29297 0.67578 0.09375 1.3516 0.13672 2.0195 0.13672 5.3984 0 10.426-2.7891 11.805-3.9648 1.8086-1.5391 2.7891-4.4805 0.90625-7.5742zm-10.797-17.023c-0.69531 4.5117-1.543 5.3867-2.9258 5.3477-0.33984-0.003906-0.71875-0.22656-1.2891-0.5625-0.71875-0.42578-1.6992-1.0039-3.2578-1.5469-0.039063-0.019531-4.0312-1.7695-7.3438-4.9414-4.2031-4.0234-6.5859-7.1758-6.7031-8.8711-0.097656-1.3789-0.15625-3.0508-0.19141-4.6172 0.042968-1.9531 0.042968-3.7461 0.019531-4.625-0.003906-0.10547-0.015625-0.19141-0.023437-0.28516 0.078124-0.85156 0.35937-0.92969 0.60937-0.98828 0.003907 0 0.14453-0.03125 0.27734 0.058594 0.14844 0.09375 0.26172 0.30469 0.32031 0.60938 0.28125 1.3984 0.81641 3.6016 1.4141 5.207 0.20312 0.54297 0.21094 1.1875 0.22266 1.8633 0.015624 1.043 0.035156 2.2266 0.78125 3.3008 0.85547 1.2305 3.4062 4.2383 8.5469 5.6211 4.2383 1.1406 5.2578 2.3125 5.2617 2.3164 0.16797 0.21875 0.48047 0.26172 0.69922 0.09375 0.21875-0.16797 0.26172-0.48047 0.09375-0.69922-0.09375-0.12109-0.87891-1.0391-3.7695-2.0508-0.30078-0.84375-0.60156-2.1641-0.74609-2.8359 2.6953-0.98438 6.6758-1.3789 8.4219-1.5078 0.046875 1.4141 0.12109 5.5586-0.42578 9.1172zm-10.008-8.3906 0.46094 0.91797c0.11328 0.22656 0.375 0.32422 0.60938 0.23828 0.11719 0.53906 0.30469 1.3438 0.51562 2.0781-0.26953-0.082031-0.55078-0.16016-0.85156-0.24219-0.23438-0.0625-0.45312-0.13281-0.67578-0.19922-0.050781-0.98437-0.0625-1.9727-0.058593-2.793zm-19.176-34.43c0.29297-0.53516 0.37891-1.1875 0.46484-1.9414 0.11719-1.0469 0.26172-2.3281 1.0195-3.8672 1.2539 0.32422 5.2461 1.2305 9.8984 0.93359 0.50391 0.375 2.3633 1.9453 2.582 4.7617-0.085937 2.2695-0.43359 4.5352-0.875 5.6445-0.51172 1.3086-1.2891 2.2109-2.0938 3.0195-0.007812 0.003906-0.011719 0.011718-0.019531 0.019531-0.19141 0.19141-0.38281 0.37891-0.57422 0.5625-0.18359 0.17969-0.36328 0.35156-0.48438 0.48047-0.027344 0.015624-0.070312 0.050781-0.09375 0.074218-1.543 1.5195-4.1562 1.5195-5.6875 0.011719-0.019531-0.019531-0.042968-0.042969-0.074218-0.0625-0.16797-0.16797-0.33984-0.33203-0.51563-0.50391-0.17969-0.17578-0.36328-0.35156-0.54297-0.53125-0.019532-0.019531-0.035156-0.039063-0.054688-0.054688-0.80469-0.80859-1.5742-1.7109-2.0898-3.0156-0.42578-1.0703-0.76562-3.2773-0.85937-5.5273zm3.1367 10.133c0.082032 0.078125 0.16406 0.15625 0.24219 0.23438 0.019531 0.019531 0.042968 0.039062 0.066406 0.054687 0.98047 0.95312 2.2656 1.4258 3.543 1.4258 1.2773 0 2.5352-0.46875 3.4805-1.4023 0.027343-0.019531 0.074218-0.054688 0.097656-0.078125 0.078125-0.078125 0.16406-0.16016 0.24609-0.24219 0.050781 0.87891 0.23047 2.0664 0.75781 3.0703-3.0391 1.6016-6.0547 1.6016-9.1875-0.003907 0.52344-1 0.69922-2.1875 0.75391-3.0625zm12.344-6.7656-0.23047 0.45312c-0.44141 0.88281-0.65625 1.2656-1.0039 1.3828 0.31641-1.1172 0.5625-2.7109 0.67188-4.4219 0.12891-0.18359 0.45703-0.53125 0.97656-0.21875 0.64844 0.39453 0.13281 1.7422-0.41406 2.8047zm-15.766-11.055c0.17578-0.10547 0.26953-0.3125 0.23828-0.51562-0.011718-0.0625-0.21484-1.5625 2.2344-2.8086 3.0391-1.5469 6.4219-1.3828 9.2812 0.44922 3.375 2.1641 4.918 6.2852 3.75 10.027 0 0.003906-0.003907 0.003906-0.003907 0.007812-0.097656 0.019532-0.19141 0.042969-0.28125 0.078126-0.375-3.543-3.0273-5.2812-3.1406-5.3555-0.089844-0.058594-0.19531-0.082031-0.30469-0.078125-5.4023 0.37891-10.078-0.97656-10.125-0.99219-0.22656-0.066406-0.46875 0.035156-0.58203 0.24219-1.0039 1.8711-1.1836 3.4375-1.3125 4.582-0.082032 0.71484-0.14844 1.2773-0.37891 1.6367-0.11719-0.054688-0.24219-0.09375-0.37891-0.12109-0.42188-1.082-1.8984-5.4609 1-7.1562zm-1.0156 11.508-0.23047-0.45312c-0.54688-1.0625-1.0625-2.4102-0.41406-2.8047 0.52734-0.32031 0.85938 0.050782 0.98438 0.23047 0.10938 1.7109 0.35156 3.3047 0.66406 4.4102-0.34766-0.11719-0.5625-0.50391-1.0039-1.3828zm-4.8398 13.398c5.3086-1.4688 7.2422-2.6641 7.9102-3.2188 1.7578 0.92578 3.5078 1.4062 5.25 1.4062 1.7422 0 3.4648-0.48047 5.168-1.4023 0.66797 0.55078 2.6016 1.7461 7.9062 3.2148 7.2383 2 9.2695 10.32 9.8242 15.457-1.6211 0.10547-6.5508 0.51562-9.6055 1.7969l-1.1484-2.2852c-0.10156-0.20312-0.32422-0.3125-0.55078-0.26562-0.22266 0.046875-0.38672 0.23828-0.39453 0.46484 0 0.023437-0.10156 2.207-0.007813 4.4844-3.6953-1.418-5.5977-3.6797-6.293-4.6758-0.57422-0.82422-0.58984-1.7578-0.60156-2.7461-0.011719-0.73438-0.023438-1.4922-0.28516-2.1953-0.57422-1.5508-1.0977-3.6914-1.3711-5.0586-0.11719-0.59766-0.38281-1.0234-0.78125-1.2695-0.37891-0.23438-0.79688-0.23828-1.1133-0.15234-0.26953 0.066406-0.55469 0.1875-0.79687 0.45703-0.24609-0.27344-0.54688-0.39844-0.83984-0.46875-0.26562-0.074219-0.68359-0.066406-1.0625 0.16797-0.39844 0.24609-0.66406 0.67188-0.78125 1.2695-0.27344 1.3633-0.79688 3.5039-1.3711 5.0586-0.26172 0.70312-0.27344 1.4648-0.28516 2.1953-0.015625 0.98828-0.027344 1.9219-0.60156 2.7461-0.69531 0.99609-2.5977 3.2578-6.293 4.6797 0.09375-2.2773-0.003906-4.4609-0.007812-4.4844-0.011719-0.22656-0.17188-0.41797-0.39453-0.46484-0.22656-0.050782-0.44922 0.0625-0.55078 0.26562l-1.1484 2.2852c-3.0508-1.2812-7.9805-1.6914-9.6055-1.7969 0.55859-5.1367 2.5898-13.457 9.8242-15.457zm-0.15234 18.371c0.23438 0.082031 0.49609-0.015625 0.60938-0.23828l0.46094-0.91797c0.003907 0.82031-0.007812 1.8086-0.058593 2.793-0.22266 0.070312-0.44531 0.13672-0.67578 0.19922-0.30078 0.078124-0.58203 0.16016-0.85156 0.24219 0.21484-0.73438 0.39844-1.5391 0.51562-2.0781zm-1.4336 10.453c-1.5898 0.55469-2.5742 1.1367-3.2891 1.5625-0.57031 0.33594-0.94922 0.5625-1.2891 0.5625h-0.027344c-1.3438 0-2.207-0.86719-2.8945-5.3477-0.54688-3.5586-0.47266-7.7031-0.42578-9.1172 1.7461 0.12891 5.7266 0.51953 8.4219 1.5078-0.14453 0.67188-0.44531 1.9961-0.74609 2.8359-2.8945 1.0156-3.6797 1.9336-3.7695 2.0508-0.16406 0.21484-0.125 0.51953 0.085937 0.69141 0.21484 0.17188 0.52344 0.13672 0.69922-0.074219 0.011719-0.011719 1.0273-1.1836 5.2656-2.3242 5.1406-1.3828 7.6914-4.3906 8.5469-5.6211 0.75-1.0742 0.76562-2.2578 0.78125-3.3008 0.011719-0.67969 0.019531-1.3203 0.22266-1.8633 0.59766-1.6055 1.1328-3.8086 1.4141-5.207 0.0625-0.30469 0.17188-0.51562 0.32031-0.60938 0.13672-0.085938 0.27734-0.058594 0.36328-0.035157 0.17188 0.039063 0.44922 0.11328 0.52734 0.96484-0.007812 0.097656-0.019531 0.18359-0.023437 0.28906-0.023438 0.87891-0.019531 2.6719 0.019531 4.625-0.035156 1.5703-0.09375 3.2422-0.19141 4.6172-0.11719 1.6992-2.5 4.8516-6.7031 8.8711-3.3086 3.1641-7.3008 4.9219-7.3086 4.9258zm8-4.2031c3.7148-3.5547 5.9453-6.3438 6.7031-8.3398 0.75781 1.9961 2.9883 4.7852 6.7031 8.3398 1.8242 1.7461 3.8086 3.0586 5.3047 3.9258 0.066407 0.48828 0.34766 2.3906 1.0195 4.6289-1.4961 0.67578-7.1562 3.0312-13.02 2.9258-0.003906 0-0.007812 0.003906-0.007812 0.003906-0.003906 0-0.003906-0.003906-0.007812-0.003906-5.9023 0.10547-11.523-2.25-13.02-2.9258 0.67188-2.2344 0.95312-4.1367 1.0195-4.6289 1.4922-0.86328 3.4766-2.1758 5.3047-3.9258zm-7.0195 9.332c0.96875 0.46484 6.8594 3.1484 13.328 3.1484 0.13281 0 0.26562 0 0.39844-0.003907 0.13281 0.003907 0.26562 0.003907 0.39844 0.003907 6.4688 0 12.359-2.6836 13.328-3.1484 0.75 0.082031 4.7344 0.57812 7.5117 2.0977-2.4492 0.69531-7.8945 2.7617-8.1016 7.4258 0 0.027343 0.007813 0.050781 0.011719 0.074219-0.59766 0.27734-1.1797 0.60547-1.7383 1.0352-0.41016 0.31641-0.78906 0.57422-1.1562 0.80469-0.91406-0.125-5.2656-0.77344-7.6055-2.1523 0.046875-0.042969 0.09375-0.085938 0.15625-0.14063 0.20703-0.17969 0.23047-0.49609 0.050781-0.70312-0.17969-0.21094-0.49609-0.23047-0.70312-0.050782-0.27734 0.24219-0.44531 0.41406-0.55859 0.55859-0.27734 0.058594-0.86719 0.16406-1.5547 0.16406s-1.2812-0.10547-1.5586-0.16406c-0.11328-0.14453-0.28125-0.31641-0.55859-0.55859-0.20703-0.17969-0.52344-0.16016-0.70703 0.050782-0.17969 0.20703-0.16016 0.52344 0.050781 0.70703 0.0625 0.054687 0.10938 0.097656 0.15625 0.14062-2.3477 1.3789-6.7773 2.0273-7.7109 2.1523-0.35156-0.23828-0.71875-0.49609-1.1172-0.80469-0.55859-0.42969-1.1406-0.76172-1.7383-1.0352 0.003906-0.027344 0.011719-0.050782 0.011719-0.074219-0.20703-4.6641-5.6523-6.7305-8.1016-7.4258 2.7773-1.5195 6.7617-2.0156 7.5117-2.0977zm17.68 12.914c-0.22266 0.15625-0.40234 0.30078-0.57031 0.4375-0.58594 0.46484-0.94141 0.74609-2.3984 1.0078-2.2031 0.39062-8.2344-1.332-8.3047-1.3516-0.011719-0.003906-0.62109-0.17578-1.6562-0.74609 1.9141-0.32031 5.3359-1.0391 7.2578-2.3242 0.33203 0.070313 0.98828 0.18359 1.7539 0.18359 0.76563 0 1.4219-0.11328 1.7539-0.18359 1.8672 1.2539 5.1172 1.9688 7.0234 2.3008-0.76562 0.34766-1.293 0.47656-1.4766 0.51172-0.92969-0.59766-2.0117-0.8125-3.3828 0.16797zm11.797 6.8984c-0.054687 0.36328-0.20703 0.41406-0.26172 0.42969-0.41016 0.12891-1.3867-0.28125-2.1797-1.1055-0.73438-0.76562-2.2344-0.55078-4.5039-0.22656-2.1914 0.3125-4.9219 0.70312-7.7656 0.30078-5.6016-0.79297-18.848-0.16016-19.453-0.13281-5.7031 0.79297-11.637-2.4062-13.039-3.6016-1.3789-1.1719-2.3867-3.5234-0.70312-6.293 1.3242-2.1758 7.8281-5.1406 10.418-6.1797 2.0469 0.5625 7.0664 2.3438 7.543 6.1953-2.2773-0.69141-4.8438-0.36719-7.7852 1.0039-0.25 0.11719-0.35938 0.41406-0.24219 0.66406s0.41406 0.35547 0.66406 0.24219c3.8242-1.7891 6.9414-1.6875 9.5234 0.3125 0.45312 0.35156 0.87109 0.64453 1.2695 0.90625 0.011719 0.007813 0.023438 0.015625 0.03125 0.023438 1.8945 1.2617 3.0859 1.5977 3.1367 1.6094 0.25781 0.074219 6.3164 1.8086 8.7461 1.375 1.707-0.30469 2.2109-0.70312 2.8477-1.2109 0.15625-0.125 0.32422-0.25781 0.52734-0.40234 1.3242-0.94531 2.0625-0.46484 3.543 0.94141 1.0859 1.0312 2.1562 1.2422 3.3945 1.4805 0.53906 0.10547 1.0977 0.21484 1.7305 0.39844 1.7383 0.51172 2.7617 1.8203 2.5469 3.2617zm15.695-4.3281c-1.4023 1.1953-7.3281 4.3984-13.023 3.6016-0.011719-0.003907-1.0508-0.18359-1.7188-0.33984-0.28516-1.4375-1.457-2.6367-3.2148-3.1523-0.67969-0.19922-1.2852-0.31641-1.8203-0.42188-1.1719-0.22656-2.0195-0.39453-2.8945-1.2266-0.15234-0.14453-0.30469-0.28906-0.46094-0.43359 0.5625-0.1875 1.3594-0.53516 2.3203-1.1289 0.023437-0.011719 0.046875-0.023438 0.0625-0.039063 0.41797-0.26172 0.85156-0.55078 1.3242-0.91797 2.5859-2 5.6992-2.1055 9.5234-0.3125 0.25 0.11719 0.54688 0.007813 0.66406-0.24219 0.11719-0.25 0.007812-0.54688-0.24219-0.66406-2.9375-1.375-5.5078-1.6953-7.7852-1.0039 0.47656-3.8516 5.5-5.6328 7.543-6.1953 2.5938 1.043 9.0938 4.0039 10.418 6.1797 1.6836 2.7695 0.67578 5.1211-0.70312 6.293zm-29.859-66.262c-0.23047-0.15234-0.29297-0.46484-0.14062-0.69141 0.15234-0.23047 0.46094-0.29297 0.69141-0.14062 0.054687 0.035156 1.3164 0.83984 2.5781-0.050781 0.22656-0.15625 0.53516-0.10547 0.69531 0.12109 0.16016 0.22656 0.10547 0.53906-0.12109 0.69531-0.64453 0.45312-1.2852 0.60547-1.8516 0.60547-1.0352 0-1.8086-0.50391-1.8594-0.53516zm-6.8945-0.066407c-0.22656-0.16016-0.28125-0.47266-0.12109-0.69531 0.16016-0.22656 0.47266-0.27734 0.69531-0.12109 1.2773 0.90234 2.5664 0.0625 2.5781 0.054687 0.23047-0.15234 0.53906-0.09375 0.69141 0.14063 0.15234 0.23047 0.089844 0.53906-0.14062 0.69141-0.050782 0.03125-0.82031 0.53516-1.8594 0.53516-0.5625 0-1.207-0.14844-1.8516-0.60547zm4.2695 5.4297h2.0664c0.27734 0 0.5 0.22266 0.5 0.5 0 0.27734-0.22266 0.5-0.5 0.5h-2.0664c-0.27734 0-0.5-0.22266-0.5-0.5 0-0.27734 0.22266-0.5 0.5-0.5z"/>
</svg>