<svg xmlns="http://www.w3.org/2000/svg" version="1.1" viewBox="-5.0 -10.0 110.0 135.0">
 <path d="m91.648 40.109h-7.9883c-0.92188 0-1.6797-0.53906-1.9805-1.3984-0.37891-1.0586-0.80859-2.1094-1.2891-3.1211-0.39062-0.82812-0.23828-1.75 0.41016-2.3906l5.6484-5.6484c1.6992-1.6992 1.6992-4.4609 0-6.1484l-7.8398-7.8398c-1.6992-1.6992-4.4609-1.6992-6.1484 0l-5.6484 5.6484c-0.64844 0.64844-1.5703 0.80859-2.3906 0.41016-1.0195-0.48047-2.0703-0.92188-3.1211-1.2891-0.85938-0.30859-1.3984-1.0703-1.3984-1.9805l-0.003906-8c0-2.3984-1.9492-4.3516-4.3516-4.3516h-11.086c-2.3984 0-4.3516 1.9492-4.3516 4.3516v7.9883c0 0.92188-0.53906 1.6797-1.3984 1.9805-1.0586 0.37891-2.1094 0.80859-3.1211 1.2891-0.82812 0.39062-1.75 0.23828-2.3906-0.41016l-5.6484-5.6484c-1.6992-1.6992-4.4609-1.6992-6.1484 0l-7.8398 7.8398c-0.82031 0.82031-1.2695 1.9102-1.2695 3.0781 0 1.1602 0.44922 2.2617 1.2695 3.0781l5.6484 5.6484c0.64844 0.64844 0.80859 1.5703 0.41016 2.3906-0.48047 1.0117-0.92188 2.0586-1.2891 3.1211-0.30859 0.85938-1.0703 1.3984-1.9805 1.3984l-8 0.003906c-2.3984 0-4.3516 1.9492-4.3516 4.3516v11.078c0 2.3984 1.9492 4.3516 4.3516 4.3516h7.9883c0.92188 0 1.6797 0.53906 1.9805 1.3984 0.37891 1.0586 0.80859 2.1094 1.2891 3.1211 0.39062 0.82812 0.23828 1.75-0.41016 2.3906l-5.6484 5.6484c-1.6992 1.6992-1.6992 4.4609 0 6.1484l7.8398 7.8398c0.82031 0.82031 1.9102 1.2695 3.0781 1.2695 1.1719 0 2.2617-0.44922 3.0781-1.2695l5.6484-5.6484c0.64844-0.64844 1.5703-0.80859 2.3906-0.41016 1.0117 0.48047 2.0586 0.92188 3.1211 1.2891 0.85938 0.30859 1.3984 1.0703 1.3984 1.9805v7.9883c0 2.3984 1.9492 4.3516 4.3516 4.3516h11.078c2.3984 0 4.3516-1.9492 4.3516-4.3516v-7.9883c0-0.92188 0.53906-1.6797 1.3984-1.9805 1.0586-0.37891 2.1094-0.80859 3.1211-1.2891 0.82812-0.39062 1.75-0.23828 2.3906 0.41016l5.6484 5.6484c0.82031 0.82031 1.9102 1.2695 3.0781 1.2695 1.1719 0 2.2617-0.44922 3.0781-1.2695l7.8398-7.8398c1.6992-1.6992 1.6992-4.4609 0-6.1484l-5.6484-5.6484c-0.64844-0.64844-0.80859-1.5703-0.41016-2.3906 0.48047-1.0117 0.92188-2.0586 1.2891-3.1211 0.30859-0.85937 1.0703-1.3984 1.9805-1.3984h7.9883c2.3984 0 4.3516-1.9492 4.3516-4.3516l0.007812-11.078c0-2.4023-1.9492-4.3516-4.3516-4.3516zm2.1133 15.43c0 1.1602-0.94922 2.1094-2.1094 2.1094h-7.9883c-1.8594 0-3.4688 1.1289-4.1016 2.8906-0.35156 0.98828-0.76172 1.9688-1.2109 2.9102-0.80078 1.6797-0.46875 3.6289 0.85156 4.9414l5.6484 5.6484c0.82031 0.82031 0.82031 2.1602 0 2.9805l-7.8398 7.8398c-0.39844 0.39844-0.92969 0.60938-1.4883 0.60938-0.55859 0-1.0898-0.21875-1.4883-0.60938l-5.6484-5.6484c-1.3203-1.3203-3.2617-1.6484-4.9414-0.85156-0.94922 0.44922-1.9219 0.85938-2.9102 1.2109-1.7617 0.62891-2.8906 2.2305-2.8906 4.1016v7.9883c0 1.1602-0.94922 2.1094-2.1094 2.1094h-11.074c-1.1602 0-2.1094-0.94922-2.1094-2.1094v-7.9883c0-1.8594-1.1289-3.4688-2.8906-4.1016-0.98828-0.35156-1.9688-0.76172-2.9102-1.2109-0.60938-0.28906-1.25-0.42969-1.8789-0.42969-1.1211 0-2.2188 0.44141-3.0586 1.2812l-5.6484 5.6484c-0.39844 0.39844-0.92969 0.60938-1.4883 0.60938-0.55859 0-1.0898-0.21875-1.4883-0.60938l-7.8398-7.8398c-0.82031-0.82031-0.82031-2.1602 0-2.9805l5.6484-5.6484c1.3203-1.3203 1.6484-3.2617 0.85156-4.9414-0.44922-0.94922-0.85938-1.9297-1.2109-2.9102-0.62891-1.7617-2.2305-2.8906-4.1016-2.8906h-7.9844c-1.1602 0-2.1094-0.94922-2.1094-2.1094l-0.003907-11.078c0-1.1602 0.94922-2.1094 2.1094-2.1094h7.9883c1.8594 0 3.4688-1.1289 4.1016-2.8906 0.35156-0.98828 0.76172-1.9688 1.2109-2.9102 0.80078-1.6797 0.46875-3.6211-0.85156-4.9414l-5.6484-5.6484c-0.39844-0.39844-0.60938-0.92969-0.60938-1.4883s0.21875-1.0898 0.60938-1.4883l7.8398-7.8398c0.82031-0.82031 2.1602-0.82031 2.9805 0l5.6484 5.6484c1.3203 1.3203 3.2617 1.6484 4.9414 0.85156 0.94922-0.44922 1.9297-0.85938 2.9102-1.2109 1.7617-0.62891 2.8906-2.2305 2.8906-4.1016v-7.9805c0-1.1602 0.94922-2.1094 2.1094-2.1094h11.078c1.1602 0 2.1094 0.94922 2.1094 2.1094v7.9883c0 1.8594 1.1289 3.4688 2.8906 4.1016 0.98828 0.35156 1.9609 0.76172 2.9102 1.2109 1.6797 0.80078 3.6211 0.46875 4.9414-0.85156l5.6484-5.6484c0.82031-0.82031 2.1602-0.82031 2.9805 0l7.8398 7.8398c0.82031 0.82031 0.82031 2.1602 0 2.9805l-5.6484 5.6484c-1.3203 1.3203-1.6484 3.2617-0.85156 4.9414 0.44922 0.94922 0.85937 1.9297 1.2109 2.9102 0.62891 1.7617 2.2305 2.8906 4.1016 2.8906h7.9883c1.1602 0 2.1094 0.94922 2.1094 2.1094l0.003906 11.066zm-43.762-31.73c-14.441 0-26.191 11.75-26.191 26.191s11.75 26.191 26.191 26.191 26.191-11.75 26.191-26.191-11.75-26.191-26.191-26.191zm23.18 27.312h0.73047c-0.26953 5.7617-2.5703 10.988-6.2188 14.988l-0.51172-0.51172c-0.44141-0.44141-1.1484-0.44141-1.5898 0s-0.44141 1.1484 0 1.5898l0.51172 0.51172c-4 3.6406-9.2305 5.9492-14.988 6.2188v-0.73047c0-0.62109-0.5-1.1211-1.1211-1.1211-0.62109 0-1.1211 0.5-1.1211 1.1211v0.73047c-5.7617-0.26953-10.988-2.5703-14.988-6.2188l0.51172-0.51172c0.44141-0.44141 0.44141-1.1484 0-1.5898-0.44141-0.44141-1.1484-0.44141-1.5898 0l-0.51172 0.51172c-3.6406-4-5.9492-9.2305-6.2188-14.988h0.73047c0.62109 0 1.1211-0.5 1.1211-1.1211s-0.5-1.1211-1.1211-1.1211h-0.73047c0.26953-5.7617 2.5781-10.988 6.2188-14.988l0.51172 0.51172c0.21875 0.21875 0.51172 0.32812 0.78906 0.32812 0.28906 0 0.57031-0.10938 0.78906-0.32812 0.44141-0.44141 0.44141-1.1484 0-1.5898l-0.51172-0.51172c4-3.6406 9.2305-5.9492 14.988-6.2188v0.73047c0 0.62109 0.5 1.1211 1.1211 1.1211 0.62109 0 1.1211-0.5 1.1211-1.1211v-0.73047c5.7617 0.26953 10.988 2.5703 14.988 6.2188l-0.51172 0.51172c-0.44141 0.44141-0.44141 1.1484 0 1.5898 0.21875 0.21875 0.51172 0.32812 0.78906 0.32812 0.28906 0 0.57031-0.10938 0.78906-0.32812l0.51172-0.51172c3.6406 4 5.9492 9.2305 6.2188 14.988h-0.73047c-0.62109 0-1.1211 0.5-1.1211 1.1211 0.023438 0.62109 0.52344 1.1211 1.1445 1.1211zm-11.191 3.5508-7.6484-3.7812c0.058594-0.28906 0.089844-0.58984 0.089844-0.89062 0-2.0508-1.4102-3.7695-3.3086-4.2695v-12.141c0-0.62109-0.5-1.1211-1.1211-1.1211s-1.1211 0.5-1.1211 1.1211v12.141c-1.8984 0.5-3.3086 2.2188-3.3086 4.2695 0 2.4414 1.9883 4.4297 4.4297 4.4297 1.3281 0 2.5195-0.60156 3.3281-1.5391l7.6719 3.8008c0.16016 0.078125 0.32812 0.12109 0.5 0.12109 0.41016 0 0.80859-0.23047 1.0117-0.62891 0.25781-0.5625 0.039062-1.2344-0.52344-1.5117zm-11.988-2.4805c-1.2109 0-2.1914-0.98047-2.1914-2.1914s0.98047-2.1914 2.1914-2.1914 2.1914 0.98047 2.1914 2.1914-0.98047 2.1914-2.1914 2.1914z"/>
</svg>