<svg xmlns="http://www.w3.org/2000/svg" version="1.1" viewBox="-5.0 -10.0 110.0 135.0">
 <path d="m50 6.25c-0.55469 0-1.082 0.22266-1.4727 0.61328l-5.9258 5.9414-7.7461-3.2227c-0.51172-0.21094-1.082-0.21094-1.5938 0-0.51172 0.21094-0.92188 0.61328-1.1328 1.1289l-3.1992 7.7539-8.3906-0.011719c-0.55078-0.003906-1.0859 0.21875-1.4766 0.60938s-0.61328 0.92578-0.60938 1.4766l0.011719 8.3906-7.7539 3.1992c-0.51172 0.21094-0.91797 0.61719-1.1289 1.1328-0.21094 0.51172-0.21094 1.082 0 1.5938l3.2227 7.7461-5.9414 5.9258c-0.39062 0.39062-0.61328 0.91797-0.61328 1.4727s0.22266 1.082 0.61328 1.4727l5.9414 5.9258-3.2227 7.7461c-0.21094 0.51172-0.21094 1.082 0 1.5938 0.21094 0.51172 0.61328 0.92188 1.1289 1.1328l7.7539 3.1992-0.011719 8.3906c-0.003906 0.55078 0.21875 1.0859 0.60938 1.4766s0.92578 0.61328 1.4766 0.60938l8.3906-0.011719 3.1992 7.7539c0.21094 0.51172 0.61719 0.91797 1.1328 1.1289 0.51172 0.21094 1.082 0.21094 1.5938 0l7.7461-3.2227 5.9258 5.9414c0.39062 0.39062 0.91797 0.61328 1.4727 0.61328s1.082-0.22266 1.4727-0.61328l5.9258-5.9414 7.7461 3.2227c0.51172 0.21094 1.082 0.21094 1.5938 0 0.51172-0.21094 0.92188-0.61328 1.1328-1.1289l3.1992-7.7539 8.3906 0.011719c0.55078 0.003906 1.0859-0.21875 1.4766-0.60938s0.61328-0.92578 0.60938-1.4766l-0.011719-8.3906 7.7539-3.1992c0.51172-0.21094 0.91797-0.61719 1.1289-1.1328 0.21094-0.51172 0.21094-1.082 0-1.5938l-3.2227-7.7461 5.9414-5.9258c0.39062-0.39062 0.61328-0.91797 0.61328-1.4727s-0.22266-1.082-0.61328-1.4727l-5.9414-5.9258 3.2227-7.7461c0.21094-0.51172 0.21094-1.082 0-1.5938-0.21094-0.51172-0.61328-0.92188-1.1289-1.1328l-7.7539-3.1992 0.011719-8.3906c0.003906-0.55078-0.21875-1.0859-0.60938-1.4766s-0.92578-0.61328-1.4766-0.60938l-8.3906 0.011719-3.1992-7.7539c-0.21094-0.51172-0.61719-0.91797-1.1328-1.1289-0.51172-0.21094-1.082-0.21094-1.5938 0l-7.7461 3.2227-5.9258-5.9414c-0.39062-0.39062-0.91797-0.61328-1.4727-0.61328zm0 5.0352 5.4297 5.4531c0.59766 0.59766 1.4961 0.77734 2.2773 0.45312l7.1055-2.957 2.9336 7.1172c0.32422 0.78125 1.082 1.293 1.9258 1.2891l7.6992-0.011719-0.011719 7.6992c-0.003906 0.84375 0.50781 1.6055 1.2891 1.9258l7.1172 2.9336-2.957 7.1055c-0.32422 0.78125-0.14453 1.6797 0.45312 2.2773l5.4531 5.4297-5.4531 5.4297c-0.59766 0.59766-0.77734 1.4961-0.45312 2.2773l2.957 7.1055-7.1172 2.9336c-0.78125 0.32422-1.293 1.082-1.2891 1.9258l0.011719 7.6992-7.6992-0.011719c-0.84375-0.003906-1.6055 0.50781-1.9258 1.2891l-2.9336 7.1172-7.1055-2.957c-0.78125-0.32422-1.6797-0.14453-2.2773 0.45312l-5.4297 5.4531-5.4297-5.4531c-0.59766-0.59766-1.4961-0.77734-2.2773-0.45312l-7.1055 2.957-2.9336-7.1172c-0.32422-0.78125-1.082-1.293-1.9258-1.2891l-7.6992 0.011719 0.011719-7.6992c0.003906-0.84375-0.50781-1.6055-1.2891-1.9258l-7.1172-2.9336 2.957-7.1055c0.32422-0.78125 0.14453-1.6797-0.45312-2.2773l-5.4531-5.4297 5.4531-5.4297c0.59766-0.59766 0.77734-1.4961 0.45312-2.2773l-2.957-7.1055 7.1172-2.9336c0.78125-0.32422 1.293-1.082 1.2891-1.9258l-0.011719-7.6992 7.6992 0.011719c0.84375 0.003906 1.6055-0.50781 1.9258-1.2891l2.9336-7.1172 7.1055 2.957c0.78125 0.32422 1.6797 0.14453 2.2773-0.45312zm0 9.5508c-16.098 0-29.168 13.07-29.168 29.168s13.07 29.168 29.168 29.168 29.168-13.07 29.168-29.168-13.07-29.168-29.168-29.168zm0 4.168c13.797 0 25 11.203 25 25s-11.203 25-25 25-25-11.203-25-25 11.203-25 25-25zm0 10.418c-0.76172 0-1.4648 0.41797-1.832 1.0859l-3.418 6.2695-7.0234 1.3164c-0.75 0.14062-1.3594 0.68359-1.5938 1.4102-0.23437 0.72656-0.058593 1.5156 0.46094 2.0703l4.9141 5.1914-0.92187 7.0859c-0.097657 0.75781 0.22656 1.5039 0.84375 1.9531 0.61719 0.44922 1.4258 0.52734 2.1133 0.19922l6.4531-3.0664 6.4531 3.0664c0.6875 0.32812 1.4961 0.24609 2.1133-0.19922 0.61719-0.44922 0.94141-1.1953 0.84375-1.9531l-0.92188-7.0859 4.9141-5.1914c0.52344-0.55469 0.69922-1.3477 0.46094-2.0703-0.23438-0.72656-0.84375-1.2695-1.5938-1.4102l-7.0234-1.3164-3.418-6.2695c-0.36328-0.66797-1.0703-1.0859-1.832-1.0859zm0 6.4375 2.0625 3.7852c0.30078 0.55078 0.83594 0.93359 1.4492 1.0508l4.2383 0.79297-2.9609 3.1367c-0.42969 0.45312-0.63672 1.0742-0.55469 1.6953l0.55469 4.2773-3.8945-1.8477c-0.56641-0.26953-1.2266-0.26953-1.793 0l-3.8945 1.8477 0.55469-4.2773c0.082031-0.62109-0.12109-1.2422-0.55469-1.6953l-2.9609-3.1367 4.2383-0.79297c0.61328-0.11328 1.1484-0.5 1.4492-1.0508l2.0625-3.7852z" fill-rule="evenodd"/>
<text x="0.0" y="117.5" font-size="5.0" font-weight="bold" font-family="Arbeit Regular, Helvetica, Arial-Unicode, Arial, Sans-serif" fill="#000000">Created by Ardiansyah</text><text x="0.0" y="122.5" font-size="5.0" font-weight="bold" font-family="Arbeit Regular, Helvetica, Arial-Unicode, Arial, Sans-serif" fill="#000000">from Noun Project</text></svg>