<svg version="1.0" preserveAspectRatio="xMidYMid meet" viewBox="60.480000000000004 547.1999753 1319.04 282.23998726" zoomAndPan="magnify" xmlns:xlink="http://www.w3.org/1999/xlink" xmlns="http://www.w3.org/2000/svg" style="max-height: 500px" width="1319.04" height="282.23998726"><defs><g/><clipPath id="789a14a760"><path clip-rule="nonzero" d="M 434 641 L 514 641 L 514 740 L 434 740 Z M 434 641"/></clipPath><clipPath id="84270b2bb1"><path clip-rule="nonzero" d="M 449.289062 641.488281 L 513.816406 729.074219 L 499.402344 739.691406 L 434.875 652.105469 Z M 449.289062 641.488281"/></clipPath><clipPath id="a6c4198dc9"><path clip-rule="nonzero" d="M 1256.53125 600.363281 L 1296.28125 600.363281 L 1296.28125 640.113281 L 1256.53125 640.113281 Z M 1256.53125 600.363281"/></clipPath></defs><g fill-opacity="1" fill="#000000"><g transform="translate(177.414919, 756.950314)"><g><path d="M 5.171875 -37.265625 L 40.328125 -37.265625 C 40.671875 -34.867188 41.789062 -32.773438 43.6875 -30.984375 C 45.59375 -29.203125 47.976562 -27.816406 50.84375 -26.828125 C 53.707031 -25.835938 56.804688 -25.34375 60.140625 -25.34375 C 65.691406 -25.34375 70.070312 -26.347656 73.28125 -28.359375 C 76.5 -30.378906 78.109375 -32.90625 78.109375 -35.9375 C 78.109375 -37.925781 77.535156 -39.5625 76.390625 -40.84375 C 75.253906 -42.132812 73.351562 -43.25 70.6875 -44.1875 C 68.03125 -45.125 64.425781 -46 59.875 -46.8125 L 43.125 -49.796875 C 31.5 -51.835938 22.613281 -56.070312 16.46875 -62.5 C 10.332031 -68.9375 7.265625 -77.09375 7.265625 -86.96875 C 7.265625 -93.394531 8.550781 -99.164062 11.125 -104.28125 C 13.695312 -109.394531 17.320312 -113.773438 22 -117.421875 C 26.675781 -121.078125 32.179688 -123.867188 38.515625 -125.796875 C 44.859375 -127.734375 51.800781 -128.703125 59.34375 -128.703125 C 70.5625 -128.703125 80.085938 -127.078125 87.921875 -123.828125 C 95.753906 -120.585938 101.71875 -115.972656 105.8125 -109.984375 C 109.90625 -103.992188 111.976562 -96.90625 112.03125 -88.71875 L 78.109375 -88.71875 C 78.046875 -91.351562 77.195312 -93.601562 75.5625 -95.46875 C 73.925781 -97.34375 71.765625 -98.773438 69.078125 -99.765625 C 66.390625 -100.765625 63.378906 -101.265625 60.046875 -101.265625 C 55.191406 -101.265625 51.332031 -100.328125 48.46875 -98.453125 C 45.601562 -96.578125 44.171875 -94.0625 44.171875 -90.90625 C 44.171875 -87.875 45.53125 -85.492188 48.25 -83.765625 C 50.96875 -82.046875 55.335938 -80.660156 61.359375 -79.609375 L 78.71875 -76.625 C 90.988281 -74.457031 100.0625 -70.40625 105.9375 -64.46875 C 111.8125 -58.539062 114.75 -50.4375 114.75 -40.15625 C 114.75 -33.664062 113.445312 -27.816406 110.84375 -22.609375 C 108.25 -17.410156 104.539062 -12.96875 99.71875 -9.28125 C 94.894531 -5.601562 89.078125 -2.769531 82.265625 -0.78125 C 75.460938 1.195312 67.851562 2.1875 59.4375 2.1875 C 48.15625 2.1875 38.46875 0.65625 30.375 -2.40625 C 22.28125 -5.476562 16.066406 -9.953125 11.734375 -15.828125 C 7.410156 -21.703125 5.222656 -28.847656 5.171875 -37.265625 Z M 5.171875 -37.265625"/></g></g></g><g fill-opacity="1" fill="#000000"><g transform="translate(304.513711, 756.950314)"><g><path d="M 45.84375 -126.5 L 45.84375 -49.1875 C 45.84375 -42.519531 47.4375 -37.414062 50.625 -33.875 C 53.8125 -30.34375 58.414062 -28.578125 64.4375 -28.578125 C 70.445312 -28.578125 75.046875 -30.34375 78.234375 -33.875 C 81.421875 -37.414062 83.015625 -42.519531 83.015625 -49.1875 L 83.015625 -126.5 L 120.1875 -126.5 L 120.1875 -45.0625 C 120.1875 -37.875 118.851562 -31.367188 116.1875 -25.546875 C 113.53125 -19.734375 109.75 -14.753906 104.84375 -10.609375 C 99.9375 -6.460938 94.0625 -3.289062 87.21875 -1.09375 C 80.382812 1.09375 72.789062 2.1875 64.4375 2.1875 C 56.070312 2.1875 48.46875 1.09375 41.625 -1.09375 C 34.789062 -3.289062 28.921875 -6.460938 24.015625 -10.609375 C 19.109375 -14.753906 15.320312 -19.734375 12.65625 -25.546875 C 10 -31.367188 8.671875 -37.875 8.671875 -45.0625 L 8.671875 -126.5 Z M 45.84375 -126.5"/></g></g></g><g fill-opacity="1" fill="#000000"><g transform="translate(440.554002, 756.950314)"><g><path d="M 43.734375 0 L 8.671875 0 L 8.671875 -126.5 L 37.515625 -126.5 L 86.34375 -60.9375 L 87.046875 -60.9375 L 87.046875 -126.5 L 122.125 -126.5 L 122.125 0 L 93.625 0 L 44.4375 -66.625 L 43.734375 -66.625 Z M 43.734375 0"/></g></g></g><g fill-opacity="1" fill="#000000"><g transform="translate(578.522842, 756.950314)"><g><path d="M 45.84375 -99.0625 L 45.84375 -66.984375 L 61.1875 -66.984375 C 66.382812 -66.984375 70.488281 -68.441406 73.5 -71.359375 C 76.507812 -74.285156 78.015625 -78.144531 78.015625 -82.9375 C 78.015625 -86.09375 77.3125 -88.882812 75.90625 -91.3125 C 74.507812 -93.738281 72.550781 -95.632812 70.03125 -97 C 67.519531 -98.375 64.601562 -99.0625 61.28125 -99.0625 Z M 45.84375 -42.4375 L 45.84375 0 L 8.671875 0 L 8.671875 -126.5 L 64.875 -126.5 C 76.15625 -126.5 85.578125 -124.804688 93.140625 -121.421875 C 100.710938 -118.035156 106.410156 -113.140625 110.234375 -106.734375 C 114.066406 -100.335938 115.984375 -92.609375 115.984375 -83.546875 C 115.984375 -78.578125 115.191406 -73.769531 113.609375 -69.125 C 112.035156 -64.476562 109.742188 -60.3125 106.734375 -56.625 C 103.722656 -52.945312 99.992188 -50.054688 95.546875 -47.953125 L 119.578125 0 L 78.015625 0 L 58.03125 -42.4375 Z M 45.84375 -42.4375"/></g></g></g><g fill-opacity="1" fill="#000000"><g transform="translate(707.813193, 756.950314)"><g><path d="M 69.34375 -128.703125 C 79.101562 -128.703125 87.910156 -127.195312 95.765625 -124.1875 C 103.628906 -121.175781 110.335938 -116.820312 115.890625 -111.125 C 121.441406 -105.425781 125.691406 -98.539062 128.640625 -90.46875 C 131.597656 -82.40625 133.078125 -73.316406 133.078125 -63.203125 C 133.078125 -53.097656 131.597656 -44.007812 128.640625 -35.9375 C 125.691406 -27.875 121.441406 -21.007812 115.890625 -15.34375 C 110.335938 -9.675781 103.628906 -5.335938 95.765625 -2.328125 C 87.910156 0.679688 79.101562 2.1875 69.34375 2.1875 C 59.519531 2.1875 50.691406 0.679688 42.859375 -2.328125 C 35.023438 -5.335938 28.332031 -9.675781 22.78125 -15.34375 C 17.226562 -21.007812 12.976562 -27.875 10.03125 -35.9375 C 7.082031 -44.007812 5.609375 -53.097656 5.609375 -63.203125 C 5.609375 -73.316406 7.082031 -82.40625 10.03125 -90.46875 C 12.976562 -98.539062 17.226562 -105.425781 22.78125 -111.125 C 28.332031 -116.820312 35.039062 -121.175781 42.90625 -124.1875 C 50.769531 -127.195312 59.582031 -128.703125 69.34375 -128.703125 Z M 69.34375 -99.0625 C 64.195312 -99.0625 59.679688 -97.597656 55.796875 -94.671875 C 51.910156 -91.753906 48.882812 -87.609375 46.71875 -82.234375 C 44.5625 -76.859375 43.484375 -70.515625 43.484375 -63.203125 C 43.484375 -55.960938 44.546875 -49.648438 46.671875 -44.265625 C 48.804688 -38.890625 51.816406 -34.738281 55.703125 -31.8125 C 59.585938 -28.894531 64.132812 -27.4375 69.34375 -27.4375 C 74.539062 -27.4375 79.082031 -28.894531 82.96875 -31.8125 C 86.851562 -34.738281 89.863281 -38.890625 92 -44.265625 C 94.132812 -49.648438 95.203125 -55.960938 95.203125 -63.203125 C 95.203125 -70.515625 94.117188 -76.859375 91.953125 -82.234375 C 89.796875 -87.609375 86.785156 -91.753906 82.921875 -94.671875 C 79.066406 -97.597656 74.539062 -99.0625 69.34375 -99.0625 Z M 69.34375 -99.0625"/></g></g></g><g fill-opacity="1" fill="#000000"><g transform="translate(853.671613, 756.950314)"><g><path d="M 69.34375 -128.703125 C 79.101562 -128.703125 87.910156 -127.195312 95.765625 -124.1875 C 103.628906 -121.175781 110.335938 -116.820312 115.890625 -111.125 C 121.441406 -105.425781 125.691406 -98.539062 128.640625 -90.46875 C 131.597656 -82.40625 133.078125 -73.316406 133.078125 -63.203125 C 133.078125 -53.097656 131.597656 -44.007812 128.640625 -35.9375 C 125.691406 -27.875 121.441406 -21.007812 115.890625 -15.34375 C 110.335938 -9.675781 103.628906 -5.335938 95.765625 -2.328125 C 87.910156 0.679688 79.101562 2.1875 69.34375 2.1875 C 59.519531 2.1875 50.691406 0.679688 42.859375 -2.328125 C 35.023438 -5.335938 28.332031 -9.675781 22.78125 -15.34375 C 17.226562 -21.007812 12.976562 -27.875 10.03125 -35.9375 C 7.082031 -44.007812 5.609375 -53.097656 5.609375 -63.203125 C 5.609375 -73.316406 7.082031 -82.40625 10.03125 -90.46875 C 12.976562 -98.539062 17.226562 -105.425781 22.78125 -111.125 C 28.332031 -116.820312 35.039062 -121.175781 42.90625 -124.1875 C 50.769531 -127.195312 59.582031 -128.703125 69.34375 -128.703125 Z M 69.34375 -99.0625 C 64.195312 -99.0625 59.679688 -97.597656 55.796875 -94.671875 C 51.910156 -91.753906 48.882812 -87.609375 46.71875 -82.234375 C 44.5625 -76.859375 43.484375 -70.515625 43.484375 -63.203125 C 43.484375 -55.960938 44.546875 -49.648438 46.671875 -44.265625 C 48.804688 -38.890625 51.816406 -34.738281 55.703125 -31.8125 C 59.585938 -28.894531 64.132812 -27.4375 69.34375 -27.4375 C 74.539062 -27.4375 79.082031 -28.894531 82.96875 -31.8125 C 86.851562 -34.738281 89.863281 -38.890625 92 -44.265625 C 94.132812 -49.648438 95.203125 -55.960938 95.203125 -63.203125 C 95.203125 -70.515625 94.117188 -76.859375 91.953125 -82.234375 C 89.796875 -87.609375 86.785156 -91.753906 82.921875 -94.671875 C 79.066406 -97.597656 74.539062 -99.0625 69.34375 -99.0625 Z M 69.34375 -99.0625"/></g></g></g><g fill-opacity="1" fill="#000000"><g transform="translate(999.530033, 756.950314)"><g><path d="M 69.34375 -128.703125 C 79.101562 -128.703125 87.910156 -127.195312 95.765625 -124.1875 C 103.628906 -121.175781 110.335938 -116.820312 115.890625 -111.125 C 121.441406 -105.425781 125.691406 -98.539062 128.640625 -90.46875 C 131.597656 -82.40625 133.078125 -73.316406 133.078125 -63.203125 C 133.078125 -53.097656 131.597656 -44.007812 128.640625 -35.9375 C 125.691406 -27.875 121.441406 -21.007812 115.890625 -15.34375 C 110.335938 -9.675781 103.628906 -5.335938 95.765625 -2.328125 C 87.910156 0.679688 79.101562 2.1875 69.34375 2.1875 C 59.519531 2.1875 50.691406 0.679688 42.859375 -2.328125 C 35.023438 -5.335938 28.332031 -9.675781 22.78125 -15.34375 C 17.226562 -21.007812 12.976562 -27.875 10.03125 -35.9375 C 7.082031 -44.007812 5.609375 -53.097656 5.609375 -63.203125 C 5.609375 -73.316406 7.082031 -82.40625 10.03125 -90.46875 C 12.976562 -98.539062 17.226562 -105.425781 22.78125 -111.125 C 28.332031 -116.820312 35.039062 -121.175781 42.90625 -124.1875 C 50.769531 -127.195312 59.582031 -128.703125 69.34375 -128.703125 Z M 69.34375 -99.0625 C 64.195312 -99.0625 59.679688 -97.597656 55.796875 -94.671875 C 51.910156 -91.753906 48.882812 -87.609375 46.71875 -82.234375 C 44.5625 -76.859375 43.484375 -70.515625 43.484375 -63.203125 C 43.484375 -55.960938 44.546875 -49.648438 46.671875 -44.265625 C 48.804688 -38.890625 51.816406 -34.738281 55.703125 -31.8125 C 59.585938 -28.894531 64.132812 -27.4375 69.34375 -27.4375 C 74.539062 -27.4375 79.082031 -28.894531 82.96875 -31.8125 C 86.851562 -34.738281 89.863281 -38.890625 92 -44.265625 C 94.132812 -49.648438 95.203125 -55.960938 95.203125 -63.203125 C 95.203125 -70.515625 94.117188 -76.859375 91.953125 -82.234375 C 89.796875 -87.609375 86.785156 -91.753906 82.921875 -94.671875 C 79.066406 -97.597656 74.539062 -99.0625 69.34375 -99.0625 Z M 69.34375 -99.0625"/></g></g></g><g fill-opacity="1" fill="#000000"><g transform="translate(1145.388453, 756.950314)"><g><path d="M 45.84375 0 L 8.671875 0 L 8.671875 -126.5 L 97.5625 -126.5 L 97.5625 -96.96875 L 45.84375 -96.96875 L 45.84375 -72.671875 L 92.65625 -72.671875 L 92.65625 -44.796875 L 45.84375 -44.796875 Z M 45.84375 0"/></g></g></g><g clip-path="url(#789a14a760)"><g clip-path="url(#84270b2bb1)"><path fill-rule="nonzero" fill-opacity="1" d="M 449.289062 641.488281 L 513.828125 729.089844 L 499.414062 739.707031 L 434.875 652.105469 Z M 449.289062 641.488281" fill="#ffffff"/></g></g><g clip-path="url(#a6c4198dc9)"><path fill-rule="nonzero" fill-opacity="1" d="M 1276.40625 602.703125 C 1266.738281 602.703125 1258.867188 610.570312 1258.867188 620.238281 C 1258.867188 629.910156 1266.738281 637.777344 1276.40625 637.777344 C 1286.078125 637.777344 1293.945312 629.910156 1293.945312 620.238281 C 1293.945312 610.570312 1286.078125 602.703125 1276.40625 602.703125 Z M 1276.40625 640.117188 C 1273.722656 640.117188 1271.121094 639.589844 1268.671875 638.554688 C 1266.304688 637.550781 1264.179688 636.121094 1262.351562 634.292969 C 1260.527344 632.46875 1259.09375 630.34375 1258.09375 627.976562 C 1257.058594 625.527344 1256.53125 622.921875 1256.53125 620.238281 C 1256.53125 617.558594 1257.058594 614.953125 1258.09375 612.503906 C 1259.09375 610.136719 1260.527344 608.011719 1262.351562 606.183594 C 1264.179688 604.359375 1266.304688 602.925781 1268.671875 601.925781 C 1271.121094 600.890625 1273.722656 600.363281 1276.40625 600.363281 C 1279.089844 600.363281 1281.691406 600.890625 1284.144531 601.925781 C 1286.511719 602.925781 1288.636719 604.359375 1290.460938 606.183594 C 1292.285156 608.011719 1293.71875 610.136719 1294.722656 612.503906 C 1295.757812 614.953125 1296.285156 617.558594 1296.285156 620.238281 C 1296.285156 622.921875 1295.757812 625.527344 1294.722656 627.976562 C 1293.71875 630.34375 1292.285156 632.46875 1290.460938 634.292969 C 1288.636719 636.121094 1286.511719 637.550781 1284.144531 638.554688 C 1281.691406 639.589844 1279.089844 640.117188 1276.40625 640.117188" fill="#000000"/></g><path fill-rule="nonzero" fill-opacity="1" d="M 1263.09375 616.015625 L 1267.246094 616.015625 L 1267.246094 626.910156 L 1270.078125 626.910156 L 1270.078125 616.015625 L 1274.222656 616.015625 L 1274.222656 613.570312 L 1263.09375 613.570312 L 1263.09375 616.015625" fill="#000000"/><path fill-rule="nonzero" fill-opacity="1" d="M 1285.53125 613.570312 L 1283.253906 619.878906 C 1282.929688 620.78125 1282.644531 621.648438 1282.402344 622.464844 C 1282.128906 621.546875 1281.84375 620.667969 1281.546875 619.851562 L 1279.265625 613.570312 L 1275.574219 613.570312 L 1275.574219 626.910156 L 1278.40625 626.910156 L 1278.40625 620.144531 C 1278.40625 619.570312 1278.394531 618.96875 1278.371094 618.34375 C 1278.496094 618.726562 1278.628906 619.109375 1278.765625 619.484375 L 1281.484375 626.910156 L 1283.335938 626.910156 L 1286.054688 619.484375 C 1286.191406 619.105469 1286.324219 618.722656 1286.453125 618.335938 C 1286.425781 618.992188 1286.414062 619.601562 1286.414062 620.152344 L 1286.414062 626.910156 L 1289.242188 626.910156 L 1289.242188 613.570312 L 1285.53125 613.570312" fill="#000000"/></svg>